<?xml version="1.0" encoding="UTF-8" standalone="no"?>
<!DOCTYPE svg PUBLIC "-//W3C//DTD SVG 1.1//EN" "http://www.w3.org/Graphics/SVG/1.1/DTD/svg11.dtd">
<svg width="100%" height="100%" viewBox="0 0 400 300" version="1.1" xmlns="http://www.w3.org/2000/svg" xmlns:xlink="http://www.w3.org/1999/xlink" xml:space="preserve" style="fill-rule:evenodd;clip-rule:evenodd;">
    <g transform="matrix(1,0,0,1,0,-50)">
        <g>
            <path d="M54.3,270L31.3,261.7L31.3,227.9L54.3,235.8L54.3,270Z" style="fill:rgb(255,153,0);"/>
            <path d="M58.6,270L81.6,261.7L81.6,227.9L58.6,235.8L58.6,270Z" style="fill:rgb(255,153,0);"/>
            <path d="M33.7,225.4L57,218.8L78.6,225.8L57,233.1L33.7,225.4Z" style="fill:rgb(255,153,0);"/>
        </g>
        <g>
            <path d="M26.9,222.8L3.8,214.5L3.8,180.7L26.9,188.5L26.9,222.8Z" style="fill:rgb(255,153,0);"/>
            <path d="M31.1,222.8L54.2,214.5L54.2,180.7L31.1,188.5L31.1,222.8Z" style="fill:rgb(255,153,0);"/>
            <path d="M6.2,178.2L29.5,171.6L51.2,178.6L29.5,185.9L6.2,178.2Z" style="fill:rgb(255,153,0);"/>
        </g>
        <g>
            <path d="M80.7,222.8L57.6,214.5L57.6,180.7L80.7,188.5L80.7,222.8Z" style="fill:rgb(255,153,0);"/>
            <path d="M84.9,222.8L108,214.5L108,180.7L84.9,188.5L84.9,222.8Z" style="fill:rgb(255,153,0);"/>
            <path d="M60,178.2L83.4,171.6L105,178.6L83.4,185.9L60,178.2Z" style="fill:rgb(255,153,0);"/>
        </g>
        <g>
            <path d="M108.2,175.5L85.1,167.3L85.1,133.5L108.2,141.3L108.2,175.5Z" style="fill:rgb(255,153,0);"/>
            <path d="M112.4,175.5L135.5,167.3L135.5,133.5L112.4,141.3L112.4,175.5Z" style="fill:rgb(255,153,0);"/>
            <path d="M87.5,130.9L110.8,124.4L132.5,131.3L110.8,138.7L87.5,130.9Z" style="fill:rgb(255,153,0);"/>
        </g>
        <g>
            <path d="M162,175.5L138.9,167.3L138.9,133.5L162,141.3L162,175.5Z" style="fill:rgb(255,153,0);"/>
            <path d="M166.2,175.5L189.3,167.3L189.3,133.5L166.2,141.3L166.2,175.5Z" style="fill:rgb(255,153,0);"/>
            <path d="M141.3,130.9L164.6,124.4L186.3,131.3L164.6,138.7L141.3,130.9Z" style="fill:rgb(255,153,0);"/>
        </g>
        <g>
            <path d="M150.3,248L142.6,274.9L139.2,274.9L133.2,254.9L127.7,274.9L124.3,274.9L116.2,248L120.4,248L126.3,268.1L131.9,248L135,248L141.1,268.1L147.1,248L150.3,248Z" style="fill-rule:nonzero;stroke:black;stroke-width:1px;"/>
            <path d="M171.7,266.9L175.6,267.7C174.9,270 173.5,271.9 171.5,273.4C169.4,274.9 167,275.7 164.2,275.7C160.5,275.7 157.6,274.4 155.3,271.8C153,269.2 151.9,265.8 151.9,261.6C151.9,257.3 153.1,253.8 155.4,251.2C157.8,248.6 160.7,247.2 164.3,247.2C167.8,247.2 170.6,248.4 172.8,250.8C174.9,253.2 176,256.9 176.1,261.7L156.6,261.7C156.6,265.8 157.5,268.5 159.2,269.9C160.9,271.3 162.7,272 164.6,272C167.9,272.2 170.3,270.4 171.7,266.9ZM171.5,258.7C171.5,257.2 171.2,255.9 170.8,254.7C170.3,253.5 169.6,252.5 168.5,251.7C167.4,250.9 166.1,250.5 164.5,250.5C162.4,250.5 160.7,251.2 159.2,252.7C157.8,254.2 156.9,256.2 156.8,258.7L171.5,258.7Z" style="fill-rule:nonzero;stroke:black;stroke-width:1px;"/>
            <path d="M183.6,274.9L181.6,274.9L181.6,238.6L185.8,238.6L185.8,252.5C187.7,249 190.4,247.3 193.7,247.3C196.8,247.3 199.4,248.5 201.4,251C203.5,253.4 204.5,257 204.5,261.6C204.5,265.6 203.5,269 201.4,271.7C199.4,274.4 196.7,275.8 193.4,275.8C189.7,275.8 186.9,274.1 185,270.6L183.6,274.9ZM185.7,264.3C185.9,267.1 186.7,269.1 188.2,270.3C189.7,271.5 191.3,272.2 193,272.2C195.1,272.2 196.8,271.3 198.2,269.4C199.5,267.6 200.2,265 200.2,261.8C200.2,258.3 199.6,255.6 198.3,253.6C197,251.6 195.3,250.6 193.1,250.6C191.3,250.6 189.8,251.3 188.3,252.7C186.9,254.1 186.1,255.9 185.8,258.2L185.8,264.3L185.7,264.3Z" style="fill-rule:nonzero;stroke:black;stroke-width:1px;"/>
            <path d="M215.2,267.9L219.2,267.1C220.1,270.5 222.9,272.2 227.6,272.2C229.3,272.2 230.8,271.8 232,271C233.2,270.2 233.8,269.1 233.8,267.7C233.8,265.6 232.3,264.3 229.2,263.7L223.5,262.6C221.3,262.2 219.5,261.3 218.2,260.1C216.9,258.9 216.2,257.2 216.2,255.2C216.2,252.9 217.1,251.1 218.9,249.5C220.7,248 223.1,247.2 226.1,247.2C231.9,247.2 235.5,249.5 236.9,254L233.1,254.8C232,252 229.7,250.6 226.3,250.6C224.6,250.6 223.2,250.9 222.1,251.6C221,252.3 220.5,253.3 220.5,254.5C220.5,256.5 221.9,257.7 224.7,258.2L229.9,259.2C235.4,260.2 238.1,262.9 238.1,267.2C238.1,269.7 237.1,271.7 235,273.2C233,274.7 230.2,275.5 226.8,275.5C220.7,275.6 216.7,273.1 215.2,267.9Z" style="fill-rule:nonzero;stroke:black;stroke-width:1px;"/>
            <path d="M260.6,266.9L264.5,267.7C263.8,270 262.4,271.9 260.3,273.4C258.2,274.9 255.8,275.7 253,275.7C249.3,275.7 246.4,274.4 244.1,271.8C241.8,269.2 240.7,265.8 240.7,261.6C240.7,257.3 241.9,253.8 244.2,251.2C246.6,248.6 249.5,247.2 253.1,247.2C256.6,247.2 259.4,248.4 261.6,250.8C263.7,253.2 264.8,256.9 264.9,261.7L245.4,261.7C245.4,265.8 246.3,268.5 248,269.9C249.7,271.3 251.5,272 253.4,272C256.8,272.2 259.2,270.4 260.6,266.9ZM260.3,258.7C260.3,257.2 260,255.9 259.6,254.7C259.1,253.5 258.4,252.5 257.3,251.7C256.2,250.9 254.9,250.5 253.3,250.5C251.2,250.5 249.5,251.2 248,252.7C246.6,254.2 245.7,256.2 245.6,258.7L260.3,258.7Z" style="fill-rule:nonzero;stroke:black;stroke-width:1px;"/>
            <path d="M273.6,274.9L269.4,274.9L269.4,248L273.1,248L273.1,254.3C274.4,251.4 275.7,249.5 277,248.6C278.3,247.7 279.6,247.3 281,247.3C281.4,247.3 282,247.3 282.7,247.4L282.7,251.4L281.9,251.4C279.6,251.4 277.7,252.3 276.2,254C274.7,255.7 273.9,258 273.8,260.8L273.8,274.9L273.6,274.9Z" style="fill-rule:nonzero;stroke:black;stroke-width:1px;"/>
            <path d="M308.7,248L299.4,274.9L295.1,274.9L285.5,248L290.1,248L297.6,269.9L305,248L308.7,248Z" style="fill-rule:nonzero;stroke:black;stroke-width:1px;"/>
            <path d="M316.5,238.6L316.5,243.2L312,243.2L312,238.6L316.5,238.6ZM316.5,248L316.5,274.9L312.3,274.9L312.3,248L316.5,248Z" style="fill-rule:nonzero;stroke:black;stroke-width:1px;"/>
            <path d="M338.4,265.5L342.2,266.2C341.7,269.2 340.5,271.5 338.7,273.2C336.9,274.9 334.6,275.7 331.9,275.7C328.2,275.7 325.4,274.3 323.4,271.6C321.5,268.9 320.5,265.5 320.5,261.6C320.5,257.5 321.5,254.1 323.6,251.4C325.6,248.7 328.4,247.3 332,247.3C334.9,247.3 337.3,248.2 339,249.9C340.8,251.7 341.9,253.9 342.3,256.7L338.5,257.4C337.8,253 335.6,250.7 332.1,250.7C329.8,250.7 328,251.7 326.8,253.6C325.6,255.6 324.9,258.1 324.9,261.2C324.9,264.6 325.5,267.3 326.7,269.2C327.9,271.1 329.7,272.1 331.9,272.1C335.2,272.2 337.4,269.9 338.4,265.5Z" style="fill-rule:nonzero;stroke:black;stroke-width:1px;"/>
            <path d="M365.8,266.9L369.7,267.7C369,270 367.6,271.9 365.5,273.4C363.4,274.9 361,275.7 358.2,275.7C354.5,275.7 351.6,274.4 349.3,271.8C347,269.2 345.9,265.8 345.9,261.6C345.9,257.3 347.1,253.8 349.4,251.2C351.8,248.6 354.7,247.2 358.3,247.2C361.8,247.2 364.6,248.4 366.8,250.8C368.9,253.2 370,256.9 370.1,261.7L350.6,261.7C350.6,265.8 351.5,268.5 353.2,269.9C354.9,271.3 356.7,272 358.6,272C362,272.2 364.4,270.4 365.8,266.9ZM365.5,258.7C365.5,257.2 365.2,255.9 364.8,254.7C364.3,253.5 363.6,252.5 362.5,251.7C361.4,250.9 360.1,250.5 358.5,250.5C356.4,250.5 354.7,251.2 353.2,252.7C351.8,254.2 350.9,256.2 350.8,258.7L365.5,258.7Z" style="fill-rule:nonzero;stroke:black;stroke-width:1px;"/>
            <path d="M372.5,267.9L376.5,267.1C377.4,270.5 380.2,272.2 384.9,272.2C386.6,272.2 388.1,271.8 389.3,271C390.5,270.2 391.1,269.1 391.1,267.7C391.1,265.6 389.6,264.3 386.5,263.7L380.8,262.6C378.6,262.2 376.8,261.3 375.5,260.1C374.2,258.9 373.5,257.2 373.5,255.2C373.5,252.9 374.4,251.1 376.2,249.5C378,248 380.4,247.2 383.4,247.2C389.2,247.2 392.8,249.5 394.2,254L390.4,254.8C389.3,252 387,250.6 383.6,250.6C381.9,250.6 380.5,250.9 379.4,251.6C378.3,252.3 377.8,253.3 377.8,254.5C377.8,256.5 379.2,257.7 382,258.2L387.2,259.2C392.7,260.2 395.4,262.9 395.4,267.2C395.4,269.7 394.4,271.7 392.3,273.2C390.3,274.7 387.5,275.5 384.1,275.5C378,275.6 374,273.1 372.5,267.9Z" style="fill-rule:nonzero;stroke:black;stroke-width:1px;"/>
        </g>
        <g>
            <path d="M278,190.5L278,184C278,183 278.7,182.4 279.6,182.4L308.6,182.4C309.5,182.4 310.3,183.1 310.3,184L310.3,189.5C310.3,190.4 309.5,191.6 308.1,193.6L293.1,215C298.7,214.9 304.6,215.7 309.6,218.5C310.7,219.1 311,220.1 311.1,221L311.1,227.9C311.1,228.9 310.1,230 309,229.4C300.1,224.7 288.2,224.2 278.4,229.5C277.4,230 276.3,229 276.3,228L276.3,221.4C276.3,220.4 276.3,218.6 277.4,217L294.8,192.1L279.7,192.1C278.7,192.1 278,191.4 278,190.5Z"/>
            <path d="M174.3,230.8L165.5,230.8C164.7,230.7 164,230.1 163.9,229.3L163.9,184.1C163.9,183.2 164.7,182.5 165.6,182.5L173.8,182.5C174.7,182.5 175.3,183.2 175.4,184L175.4,189.9L175.6,189.9C177.7,184.2 181.8,181.5 187.2,181.5C192.7,181.5 196.2,184.2 198.6,189.9C200.7,184.2 205.6,181.5 210.8,181.5C214.5,181.5 218.5,183 221,186.5C223.8,190.3 223.2,195.8 223.2,200.7L223.2,229.3C223.2,230.2 222.4,230.9 221.5,230.9L212.7,230.9C211.8,230.8 211.1,230.1 211.1,229.3L211.1,205.3C211.1,203.4 211.3,198.6 210.9,196.8C210.2,193.8 208.3,192.9 205.7,192.9C203.6,192.9 201.3,194.3 200.4,196.6C199.5,198.9 199.6,202.7 199.6,205.3L199.6,229.3C199.6,230.2 198.8,230.9 197.9,230.9L189.1,230.9C188.2,230.8 187.5,230.1 187.5,229.3L187.5,205.3C187.5,200.3 188.3,192.8 182.1,192.8C175.8,192.8 176,200 176,205.3L176,229.3C176,230.1 175.2,230.8 174.3,230.8Z"/>
            <path d="M331.6,181.5C344.6,181.5 351.6,192.7 351.6,207C351.6,220.8 343.8,231.8 331.6,231.8C318.9,231.8 311.9,220.6 311.9,206.6C311.9,192.5 318.9,181.5 331.6,181.5ZM331.6,191.9C325.1,191.9 324.7,200.8 324.7,206.3C324.7,211.8 324.6,222.5 331.5,222.5C338.3,222.5 338.6,214.1 338.6,208.3C338.6,204.5 338.4,199.9 337.3,196.3C336.4,193.2 334.4,191.9 331.6,191.9Z"/>
            <path d="M370.3,230.8L361.5,230.8C360.6,230.7 359.9,230 359.9,229.2L359.9,183.9C360,183.1 360.7,182.4 361.6,182.4L369.8,182.4C370.6,182.4 371.2,183 371.4,183.7L371.4,190.6L371.6,190.6C374.1,184.4 377.5,181.5 383.6,181.5C387.5,181.5 391.4,182.9 393.9,186.8C396.2,190.4 396.2,196.5 396.2,200.9L396.2,229.4C396.1,230.2 395.4,230.8 394.5,230.8L385.7,230.8C384.9,230.7 384.2,230.1 384.1,229.4L384.1,204.8C384.1,199.8 384.7,192.6 378.6,192.6C376.5,192.6 374.5,194 373.5,196.2C372.3,199 372.1,201.7 372.1,204.8L372.1,229.2C372,230.1 371.3,230.8 370.3,230.8Z"/>
            <path d="M255.9,209.2C255.9,212.6 256,215.5 254.3,218.6C252.9,221.1 250.7,222.6 248.2,222.6C244.8,222.6 242.8,220 242.8,216.2C242.8,208.7 249.5,207.3 255.9,207.3L255.9,209.2ZM264.8,230.7C264.2,231.2 263.4,231.3 262.7,230.9C259.8,228.5 259.2,227.3 257.6,225C252.8,229.9 249.3,231.4 243.1,231.4C235.7,231.4 229.9,226.8 229.9,217.7C229.9,210.5 233.8,205.7 239.3,203.3C244.1,201.2 250.8,200.8 255.9,200.2L255.9,199.1C255.9,197 256.1,194.5 254.8,192.7C253.7,191.1 251.7,190.4 249.9,190.4C246.5,190.4 243.5,192.1 242.8,195.7C242.6,196.5 242.1,197.3 241.3,197.3L232.8,196.4C232.1,196.2 231.3,195.7 231.5,194.6C233.5,184.2 242.8,181.1 251.2,181.1C255.5,181.1 261.1,182.2 264.5,185.5C268.8,189.5 268.4,194.9 268.4,200.7L268.4,214.4C268.4,218.5 270.1,220.3 271.7,222.6C272.3,223.4 272.4,224.4 271.7,224.9C269.8,226.4 266.6,229.2 264.8,230.7Z"/>
            <path d="M141.3,209.2C141.3,212.6 141.4,215.5 139.7,218.6C138.3,221.1 136.1,222.6 133.6,222.6C130.2,222.6 128.2,220 128.2,216.2C128.2,208.7 134.9,207.3 141.3,207.3L141.3,209.2ZM150.2,230.7C149.6,231.2 148.8,231.3 148.1,230.9C145.2,228.5 144.6,227.3 143,225C138.2,229.9 134.7,231.4 128.5,231.4C121.1,231.4 115.3,226.8 115.3,217.7C115.3,210.5 119.2,205.7 124.7,203.3C129.5,201.2 136.2,200.8 141.3,200.2L141.3,199.1C141.3,197 141.5,194.5 140.2,192.7C139.1,191.1 137.1,190.4 135.3,190.4C131.9,190.4 128.9,192.1 128.2,195.7C128,196.5 127.5,197.3 126.7,197.3L118.2,196.4C117.5,196.2 116.7,195.7 116.9,194.6C118.9,184.2 128.2,181.1 136.6,181.1C140.9,181.1 146.5,182.2 149.9,185.5C154.2,189.5 153.8,194.9 153.8,200.7L153.8,214.4C153.8,218.5 155.5,220.3 157.1,222.6C157.7,223.4 157.8,224.4 157.1,224.9C155.2,226.4 152,229.2 150.2,230.7Z"/>
        </g>
    </g>
</svg>
