<?xml version="1.0" encoding="UTF-8" standalone="no"?>
<!DOCTYPE svg PUBLIC "-//W3C//DTD SVG 1.1//EN" "http://www.w3.org/Graphics/SVG/1.1/DTD/svg11.dtd">
<svg width="100%" height="100%" viewBox="0 0 2829 1400" version="1.1" xmlns="http://www.w3.org/2000/svg" xmlns:xlink="http://www.w3.org/1999/xlink" xml:space="preserve" style="fill-rule:evenodd;clip-rule:evenodd;stroke-miterlimit:10;">
    <g transform="matrix(1,0,0,1,0,276.95)">
        <path d="M2589.6,244.8C2596.9,241.8 2597.5,241.2 2594.8,233.5C2579.3,189.2 2520.9,165.3 2471.2,186.1C2432,202.5 2403.6,243.9 2403.6,290.3C2403.6,352.8 2448.7,408.4 2510,408.4C2538.1,408.4 2558.1,404.5 2575.9,393.2C2579.7,389.7 2601.2,372.5 2601.4,368.8C2601.4,367.9 2598.4,370.6 2593.7,373.2C2579.9,380.5 2559.1,383.3 2542.8,383.6C2509.9,384.2 2483.6,361.7 2466.4,335.1C2455.4,317.9 2448.2,298.3 2446.4,277.3C2443.7,244.9 2451.6,207.7 2488.1,198.6C2512.4,192.5 2535.5,206.2 2544.4,229.6C2548.5,240.2 2546,245.8 2536.2,249.8L2448.2,286.5L2478.2,288.4C2513.9,273.5 2553.9,259.6 2589.6,244.8Z" style="fill:rgb(117,125,129);fill-rule:nonzero;"/>
        <path d="M2318.8,64.5C2341.1,64.5 2362.1,64.5 2384.5,64.5C2375.4,70.4 2372.3,72.9 2368.4,79.1C2365.6,83.6 2364.9,92 2364.4,99.6C2360.6,187.3 2362.9,275.6 2362.3,363.3C2362.7,387.2 2372.1,384.4 2403.1,383.5C2398.4,387.5 2390.8,395.3 2384.9,398.7C2356.9,398.7 2330.1,398.1 2302.1,398.1C2312.7,387.2 2318.1,380.2 2317.4,352.9C2318,261.3 2314.3,173.3 2319.9,85.1C2306.8,85.5 2294.8,85.3 2281.7,85.7C2294,79.3 2305.8,70.3 2318.8,64.5Z" style="fill:rgb(117,125,129);fill-rule:nonzero;"/>
        <path d="M2252.2,397.6C2237.7,386.8 2212.7,371.9 2214.3,351.4C2214.8,344.4 2219.8,337.1 2229.7,331.3C2247,321.1 2258.8,307.8 2264.7,292.3C2270.9,275.9 2270,258 2263.9,241.9C2258.2,226.8 2247.9,213.2 2234.4,203.7L2266.4,203.7L2294.5,185.5C2254.5,185.2 2216.6,185.2 2175.8,185.2C2136.5,185.2 2101.1,204.2 2085.2,238.4C2077.9,254.2 2075,274.2 2079.6,293.5C2088.9,331.4 2128.5,356.5 2166.9,350.7C2171.1,350.1 2172.5,348.7 2170.3,352.6C2161.8,367.5 2168,389.8 2184.7,400.7C2173.6,399.9 2161.9,399.7 2148.7,401.2C2101.7,406.7 2049.7,430.8 2052.4,481.5C2054.5,520.7 2094.2,549.5 2157,549.8C2207.6,549.6 2255.3,533.6 2275.3,497.8C2296.2,460.2 2283.8,421.3 2252.2,397.6ZM2124.4,282.3C2113.4,239.4 2124.8,212.2 2151.2,203.9C2182.5,194.1 2216,222.4 2223.6,268.7C2228.6,299.1 2220.9,327.8 2193.5,335.4C2165.5,343.3 2134.4,321.5 2124.4,282.3ZM2249,482.3C2246.3,506.1 2223.5,524.8 2184.5,527.2C2142.8,529.7 2086.7,513.2 2097.1,458.4C2102.6,429.2 2141.4,414.1 2173.4,413C2182.3,412.7 2191.3,413.4 2200.2,413.7C2204.9,417.2 2209.8,420.5 2214.9,423.7C2242.4,441.2 2251.2,462.6 2249,482.3Z" style="fill:rgb(117,125,129);fill-rule:nonzero;"/>
        <path d="M2055.4,287.9C2051.9,229.2 2012.6,179.1 1937.2,179.1C1872,179.1 1818.8,230 1818.8,292.3C1818.8,363.6 1880.7,412.5 1951.7,404.9C2010.7,398.7 2058.9,346.4 2055.4,287.9ZM1959.7,387.3C1920.2,396.4 1878.4,363.7 1867.9,308C1856.4,246.9 1875.4,206.8 1912.6,196.9C1956.8,185.2 2001.8,229.8 2008.3,295.4C2012.8,338.4 1998.3,378.4 1959.7,387.3Z" style="fill:rgb(117,125,129);fill-rule:nonzero;"/>
        <path d="M1798.5,287.9C1794.9,229.2 1755.2,179.1 1678.9,179.1C1612.9,179.1 1559.1,230 1559.1,292.3C1559.1,363.6 1621.8,412.5 1693.6,404.9C1753.3,398.7 1802.1,346.4 1798.5,287.9ZM1701.8,387.3C1661.8,396.4 1619.5,363.7 1608.9,308C1597.3,246.9 1616.5,206.8 1654.2,196.9C1698.9,185.2 1744.4,229.8 1751.1,295.4C1755.4,338.4 1740.8,378.4 1701.8,387.3Z" style="fill:rgb(117,125,129);fill-rule:nonzero;"/>
        <path d="M1489.5,147.8L1523.8,112.9C1465.6,64.7 1365.9,58.4 1299.7,91.9C1242.2,121 1200.4,178.7 1198.3,243.2C1196.2,311.1 1235.6,364.8 1275.6,391.8C1341.7,436.4 1456.3,426.4 1525.3,391.6L1525.3,385.1L1525.3,314L1541.4,295.2L1440.9,295.2L1403.7,316.2L1476,314C1476,334.3 1476,356.4 1476,376.7C1476,385.6 1476.1,387 1461.5,391.8C1440.9,397.2 1417.6,398.3 1396.3,396.5C1324.1,390.5 1269.1,333.4 1256,262.3C1243.6,194.8 1275.5,130.9 1329.3,104.6C1355.6,91.7 1387.1,85.7 1421.3,96.6C1442.7,103.5 1462.2,115.8 1479.2,132.9L1467.4,154.4L1489.5,147.8Z" style="fill:rgb(117,125,129);fill-rule:nonzero;"/>
    </g>
    <g transform="matrix(1,0,0,1,0,276.95)">
        <path d="M1282.1,589.8C1259.5,589.8 1241.7,597 1228.7,611.5C1215.7,626 1209.2,645.8 1209.2,671C1209.2,696.7 1215.3,716.7 1227.6,731C1239.9,745.2 1257.4,752.3 1280.2,752.3C1295.3,752.3 1309.2,750.4 1321.9,746.5L1321.9,757.6C1310,761.8 1295.1,763.9 1277.2,763.9C1251.9,763.9 1231.9,755.7 1217.4,739.3C1202.8,722.9 1195.6,700.1 1195.6,670.7C1195.6,652.4 1199.1,636.2 1206,622.2C1213,608.2 1222.9,597.4 1236,589.8C1249,582.2 1264.2,578.4 1281.5,578.4C1299.1,578.4 1314.8,581.7 1328.7,588.3L1323.6,599.6C1310.4,593.1 1296.6,589.8 1282.1,589.8Z" style="fill:rgb(117,125,129);fill-rule:nonzero;"/>
        <rect x="1356.8" y="569.4" width="12.2" height="192" style="fill:rgb(117,125,129);fill-rule:nonzero;"/>
        <path d="M1524.1,694.1C1524.1,716 1518.8,733.1 1508.2,745.4C1497.6,757.7 1483,763.8 1464.3,763.8C1452.5,763.8 1442.2,761 1433.2,755.3C1424.2,749.6 1417.4,741.5 1412.6,730.9C1407.8,720.3 1405.4,708 1405.4,694.1C1405.4,672.2 1410.7,655.2 1421.3,643C1431.9,630.8 1446.5,624.7 1465,624.7C1483.4,624.7 1497.9,630.9 1508.4,643.3C1518.9,655.6 1524.1,672.6 1524.1,694.1ZM1418.3,694.1C1418.3,712.5 1422.3,726.9 1430.5,737.2C1438.6,747.5 1450.1,752.7 1464.9,752.7C1479.7,752.7 1491.2,747.5 1499.3,737.2C1507.4,726.9 1511.5,712.5 1511.5,694.1C1511.5,675.6 1507.4,661.2 1499.2,651.1C1491,640.9 1479.5,635.8 1464.7,635.8C1449.9,635.8 1438.5,640.9 1430.5,651C1422.3,661.2 1418.3,675.6 1418.3,694.1Z" style="fill:rgb(117,125,129);fill-rule:nonzero;"/>
        <path d="M1567.5,627.3L1567.5,714.1C1567.5,727.6 1570.3,737.4 1576,743.5C1581.7,749.6 1590.5,752.7 1602.4,752.7C1618.4,752.7 1630.1,748.7 1637.6,740.6C1645.1,732.5 1648.9,719.4 1648.9,701.2L1648.9,627.2L1661,627.2L1661,761.3L1650.6,761.3L1648.4,742.8L1647.7,742.8C1639,756.8 1623.5,763.8 1601.2,763.8C1570.7,763.8 1555.4,747.5 1555.4,714.8L1555.4,627.2L1567.5,627.2L1567.5,627.3Z" style="fill:rgb(117,125,129);fill-rule:nonzero;"/>
        <path d="M1750.7,624.7C1760.4,624.7 1768.8,626.5 1775.9,630C1783,633.5 1789.3,639.6 1794.9,648.1L1795.6,648.1C1795.1,637.7 1794.9,627.6 1794.9,617.6L1794.9,569.4L1807,569.4L1807,761.3L1799,761.3L1795.9,740.8L1794.9,740.8C1784.7,756.1 1770.1,763.7 1751,763.7C1732.5,763.7 1718.3,757.9 1708.6,746.4C1698.8,734.9 1693.9,718.1 1693.9,696.1C1693.9,672.9 1698.8,655.2 1708.5,642.9C1718.1,630.8 1732.2,624.7 1750.7,624.7ZM1750.7,635.8C1736.1,635.8 1725.1,640.9 1717.7,651.2C1710.3,661.5 1706.7,676.4 1706.7,696C1706.7,734 1721.5,753 1751,753C1766.1,753 1777.2,748.6 1784.3,739.8C1791.4,731 1794.9,716.5 1794.9,696.3L1794.9,694.2C1794.9,673.5 1791.4,658.6 1784.5,649.5C1777.5,640.3 1766.2,635.8 1750.7,635.8Z" style="fill:rgb(117,125,129);fill-rule:nonzero;"/>
        <path d="M2026.9,632.8C2026.9,650.2 2021,663.6 2009.1,672.9C1997.3,682.2 1980.5,686.8 1958.8,686.8L1930.9,686.8L1930.9,761.3L1918.3,761.3L1918.3,581L1962.5,581C2005.4,581 2026.9,598.3 2026.9,632.8ZM1930.9,676L1955.7,676C1976,676 1990.7,672.6 1999.7,665.9C2008.7,659.2 2013.3,648.3 2013.3,633.3C2013.3,619.4 2009,609.1 2000.5,602.4C1991.9,595.7 1978.7,592.4 1960.8,592.4L1930.9,592.4L1930.9,676Z" style="fill:rgb(117,125,129);fill-rule:nonzero;"/>
        <rect x="2056.5" y="569.4" width="12.2" height="192" style="fill:rgb(117,125,129);fill-rule:nonzero;"/>
        <path d="M2196.8,761.4L2193.7,740.2L2192.7,740.2C2186,748.8 2179,754.9 2171.9,758.5C2164.8,762.1 2156.4,763.9 2146.7,763.9C2133.5,763.9 2123.3,760.5 2116,753.8C2108.7,747.1 2105,737.7 2105,725.8C2105,712.7 2110.4,702.6 2121.3,695.3C2132.2,688.1 2148,684.2 2168.6,683.8L2194.1,683.1L2194.1,674.2C2194.1,661.4 2191.5,651.8 2186.3,645.3C2181.1,638.8 2172.8,635.6 2161.3,635.6C2148.9,635.6 2136,639.1 2122.7,646L2118.1,635.4C2132.8,628.5 2147.4,625 2161.8,625C2176.5,625 2187.5,628.8 2194.8,636.5C2202.1,644.2 2205.7,656.1 2205.7,672.3L2205.7,761.5L2196.8,761.5L2196.8,761.4ZM2147.5,752.7C2161.8,752.7 2173.1,748.6 2181.4,740.4C2189.7,732.2 2193.8,720.9 2193.8,706.3L2193.8,693.1L2170.4,694.1C2151.6,695 2138.1,698 2130.1,702.9C2122.1,707.9 2118.1,715.6 2118.1,726.1C2118.1,734.5 2120.7,741 2125.8,745.7C2130.8,750.4 2138.1,752.7 2147.5,752.7Z" style="fill:rgb(117,125,129);fill-rule:nonzero;"/>
        <path d="M2283,753C2290.7,753 2297.5,752.3 2303.2,751L2303.2,760.9C2297.3,762.9 2290.4,763.9 2282.7,763.9C2270.9,763.9 2262.1,760.7 2256.5,754.4C2250.9,748.1 2248.1,738.1 2248.1,724.5L2248.1,637.9L2228.2,637.9L2228.2,630.7L2248.1,625.1L2254.3,594.8L2260.6,594.8L2260.6,627.2L2300,627.2L2300,637.8L2260.6,637.8L2260.6,722.7C2260.6,733 2262.4,740.6 2266,745.5C2269.6,750.5 2275.2,753 2283,753Z" style="fill:rgb(117,125,129);fill-rule:nonzero;"/>
        <path d="M2380.4,637.9L2348.8,637.9L2348.8,761.4L2336.6,761.4L2336.6,637.9L2311.7,637.9L2311.7,630.7L2336.6,626.1L2336.6,615.7C2336.6,599.3 2339.6,587.2 2345.7,579.5C2351.7,571.8 2361.6,568 2375.4,568C2382.8,568 2390.2,569.1 2397.6,571.3L2394.8,581.9C2388.2,579.8 2381.7,578.8 2375.2,578.8C2365.6,578.8 2358.9,581.6 2354.9,587.2C2350.9,592.8 2348.9,602 2348.9,614.6L2348.9,627.1L2380.5,627.1L2380.5,637.9L2380.4,637.9Z" style="fill:rgb(117,125,129);fill-rule:nonzero;"/>
        <path d="M2516,694.1C2516,716 2510.7,733.1 2500.1,745.4C2489.5,757.7 2474.9,763.8 2456.2,763.8C2444.4,763.8 2434.1,761 2425.1,755.3C2416.1,749.6 2409.3,741.5 2404.5,730.9C2399.7,720.3 2397.3,708 2397.3,694.1C2397.3,672.2 2402.6,655.2 2413.2,643C2423.8,630.8 2438.4,624.7 2456.9,624.7C2475.3,624.7 2489.8,630.9 2500.3,643.3C2510.7,655.6 2516,672.6 2516,694.1ZM2410.2,694.1C2410.2,712.5 2414.2,726.9 2422.4,737.2C2430.5,747.5 2442,752.7 2456.8,752.7C2471.6,752.7 2483.1,747.5 2491.2,737.2C2499.3,726.9 2503.4,712.5 2503.4,694.1C2503.4,675.6 2499.3,661.2 2491.1,651.1C2482.9,640.9 2471.4,635.8 2456.6,635.8C2441.8,635.8 2430.4,640.9 2422.4,651C2414.2,661.2 2410.2,675.6 2410.2,694.1Z" style="fill:rgb(117,125,129);fill-rule:nonzero;"/>
        <path d="M2603.2,624.7C2608.9,624.7 2615,625.3 2621.5,626.4L2619.1,638.1C2613.5,636.7 2607.7,636 2601.7,636C2590.3,636 2580.9,640.9 2573.6,650.6C2566.3,660.3 2562.6,672.6 2562.6,687.4L2562.6,761.4L2550.4,761.4L2550.4,627.3L2560.8,627.3L2562,651.5L2562.9,651.5C2568.4,641.6 2574.3,634.7 2580.5,630.7C2586.7,626.7 2594.3,624.7 2603.2,624.7Z" style="fill:rgb(117,125,129);fill-rule:nonzero;"/>
        <path d="M2816.1,761.4L2816.1,673.4C2816.1,660.3 2813.6,650.8 2808.5,644.8C2803.4,638.8 2795.6,635.8 2785.1,635.8C2771.4,635.8 2761.2,639.6 2754.6,647.1C2748,654.7 2744.7,666.6 2744.7,682.8L2744.7,761.4L2732.2,761.4L2732.2,669.7C2732.2,647.1 2721.8,635.8 2701.1,635.8C2687,635.8 2676.8,639.9 2670.4,648.1C2664,656.3 2660.8,669.4 2660.8,687.4L2660.8,761.4L2648.6,761.4L2648.6,627.3L2658.7,627.3L2661.3,645.7L2662,645.7C2665.7,639 2671,633.9 2677.8,630.2C2684.6,626.5 2692.1,624.7 2700.4,624.7C2721.5,624.7 2735.1,632.6 2741.1,648.5L2741.6,648.5C2745.9,640.9 2751.8,635 2759.2,630.9C2766.6,626.8 2774.9,624.7 2784.3,624.7C2798.9,624.7 2809.9,628.6 2817.2,636.4C2824.5,644.2 2828.2,656.6 2828.2,673.7L2828.2,761.4L2816.1,761.4L2816.1,761.4Z" style="fill:rgb(117,125,129);fill-rule:nonzero;"/>
    </g>
    <g transform="matrix(1,0,0,1,0,276.95)">
        <path d="M303.7,711.3L135.9,420.6L303.7,129.9L639.4,129.9L807.3,420.6L639.4,711.3L303.7,711.3Z" style="fill:rgb(207,206,203);fill-rule:nonzero;"/>
        <path d="M332.2,674.8L183,419.6L101.2,279.7C95.2,269.4 92.8,255.2 93.7,241.7L7.7,390.6C-2.6,408.4 -2.6,437.6 7.7,455.4L214.5,813.6C224.8,831.4 250,846 270.6,846L516.8,846C526.7,840.2 535.2,832.3 540.2,823.6L624.5,674.7L332.2,674.7L332.2,674.8Z" style="fill:rgb(244,181,26);fill-rule:nonzero;"/>
        <path d="M947.2,390.6L740.4,32.4L824.4,177.9L947.2,390.6Z" style="fill:rgb(221,70,47);fill-rule:nonzero;"/>
        <path d="M947.2,390.6L824.4,177.9C813.8,171.4 801.6,167.2 790.6,167.2L624.2,167.2L768.2,421L624.5,674.8L540.2,823.7C535.2,832.4 526.6,840.3 516.8,846.1L684.3,846.1C704.9,846.1 730.1,831.5 740.4,813.7L822.7,671.2L947.3,455.4C957.5,437.6 957.5,408.5 947.2,390.6Z" style="fill:rgb(221,70,47);fill-rule:nonzero;"/>
        <path d="M740.4,32.4C730.1,14.6 704.9,0 684.3,0L521.6,0L270.6,0C250,0 224.8,14.6 214.5,32.4L93.7,241.7C92.8,255.2 95.2,269.4 101.2,279.7L183,419.6L329,167.3L790.7,167.3C801.6,167.3 813.8,171.4 824.5,178L740.4,32.4Z" style="fill:rgb(81,125,191);fill-rule:nonzero;"/>
        <path d="M183,419.6L332.2,674.8L624.5,674.8L768.2,421L624.2,167.3L329,167.3L183,419.6Z" style="fill:rgb(207,206,203);fill-rule:nonzero;"/>
        <path d="M98.9,232.6L93.6,241.8C92.7,255.3 95.1,269.5 101.1,279.8L183,419.6L226.5,344.4L98.9,232.6Z" style="fill:rgb(79,113,169);fill-rule:nonzero;"/>
        <path d="M830,187.5L824.5,178C813.9,171.5 801.7,167.3 790.7,167.3L624.3,167.3L667.6,243.7L830,187.5Z" style="fill:rgb(195,67,47);fill-rule:nonzero;"/>
        <path d="M502.8,846.1L517.1,846.1C527,840.3 535.5,832.4 540.5,823.7L624.8,674.8L535.1,674.8L502.8,846.1Z" style="fill:rgb(209,157,42);fill-rule:nonzero;"/>
        <g>
            <path d="M477.2,553.3C405.1,553.3 346.4,494.6 346.4,422.5C346.4,350.4 405.1,291.7 477.2,291.7C549.3,291.7 608,350.4 608,422.5C608,494.6 549.3,553.3 477.2,553.3Z" style="fill:white;fill-rule:nonzero;"/>
            <path d="M477.2,293.5C548.4,293.5 606.2,351.2 606.2,422.5C606.2,493.7 548.5,551.5 477.2,551.5C406,551.5 348.2,493.8 348.2,422.5C348.2,351.2 406,293.5 477.2,293.5M477.2,289.8C404,289.8 344.5,349.3 344.5,422.5C344.5,495.7 404,555.2 477.2,555.2C550.4,555.2 609.9,495.7 609.9,422.5C609.9,349.3 550.4,289.8 477.2,289.8Z" style="fill:rgb(202,200,198);fill-rule:nonzero;"/>
        </g>
        <g>
            <path d="M281.3,107.5C267.4,107.5 256.1,96.2 256.1,82.3C256.1,68.4 267.4,57.1 281.3,57.1C295.2,57.1 306.5,68.4 306.5,82.3C306.6,96.2 295.2,107.5 281.3,107.5Z" style="fill:white;fill-rule:nonzero;"/>
            <path d="M281.3,58.9C294.2,58.9 304.7,69.4 304.7,82.3C304.7,95.2 294.2,105.7 281.3,105.7C268.4,105.7 257.9,95.2 257.9,82.3C257.9,69.4 268.4,58.9 281.3,58.9M281.3,55.2C266.3,55.2 254.2,67.4 254.2,82.3C254.2,97.3 266.4,109.4 281.3,109.4C296.3,109.4 308.4,97.2 308.4,82.3C308.4,67.4 296.3,55.2 281.3,55.2Z" style="fill:rgb(68,114,184);fill-rule:nonzero;"/>
        </g>
        <circle cx="671.6" cy="82.3" r="23.4" style="fill:white;stroke:rgb(68,114,184);stroke-width:1px;"/>
        <g>
            <path d="M281.3,784.2C267.4,784.2 256.1,772.9 256.1,759C256.1,745.1 267.4,733.8 281.3,733.8C295.2,733.8 306.5,745.1 306.5,759C306.6,772.8 295.2,784.2 281.3,784.2Z" style="fill:white;fill-rule:nonzero;"/>
            <path d="M281.3,735.6C294.2,735.6 304.7,746.1 304.7,759C304.7,771.9 294.2,782.4 281.3,782.4C268.4,782.4 257.9,771.9 257.9,759C257.9,746 268.4,735.6 281.3,735.6M281.3,731.8C266.3,731.8 254.2,744 254.2,758.9C254.2,773.9 266.4,786 281.3,786C296.3,786 308.4,773.8 308.4,758.9C308.4,744 296.3,731.8 281.3,731.8Z" style="fill:rgb(243,176,28);fill-rule:nonzero;"/>
        </g>
        <g>
            <path d="M671.6,784.2C657.7,784.2 646.4,772.9 646.4,759C646.4,745.1 657.7,733.8 671.6,733.8C685.5,733.8 696.8,745.1 696.8,759C696.8,772.8 685.5,784.2 671.6,784.2Z" style="fill:white;fill-rule:nonzero;"/>
            <path d="M671.6,735.6C684.5,735.6 695,746.1 695,759C695,771.9 684.5,782.4 671.6,782.4C658.7,782.4 648.2,771.9 648.2,759C648.2,746 658.7,735.6 671.6,735.6M671.6,731.8C656.6,731.8 644.5,744 644.5,758.9C644.5,773.9 656.7,786 671.6,786C686.6,786 698.7,773.8 698.7,758.9C698.7,744 686.5,731.8 671.6,731.8Z" style="fill:rgb(222,72,47);fill-rule:nonzero;"/>
        </g>
        <g>
            <path d="M868,447.7C854.1,447.7 842.8,436.4 842.8,422.4C842.8,408.5 854.1,397.2 868,397.2C881.9,397.2 893.2,408.5 893.2,422.4C893.3,436.4 882,447.7 868,447.7Z" style="fill:white;fill-rule:nonzero;"/>
            <path d="M868,399.1C880.9,399.1 891.4,409.6 891.4,422.5C891.4,435.4 880.9,445.9 868,445.9C855.1,445.9 844.6,435.4 844.6,422.5C844.7,409.6 855.1,399.1 868,399.1M868,395.4C853,395.4 840.9,407.6 840.9,422.5C840.9,437.5 853.1,449.6 868,449.6C882.9,449.6 895.1,437.4 895.1,422.5C895.2,407.5 883,395.4 868,395.4Z" style="fill:rgb(222,72,47);fill-rule:nonzero;"/>
        </g>
        <g>
            <path d="M84.5,447.7C70.6,447.7 59.3,436.4 59.3,422.4C59.3,408.5 70.6,397.2 84.5,397.2C98.4,397.2 109.7,408.5 109.7,422.4C109.7,436.4 98.4,447.7 84.5,447.7Z" style="fill:white;fill-rule:nonzero;"/>
            <path d="M84.5,399.1C97.4,399.1 107.9,409.6 107.9,422.5C107.9,435.4 97.4,445.9 84.5,445.9C71.6,445.9 61.1,435.4 61.1,422.5C61.1,409.6 71.6,399.1 84.5,399.1M84.5,395.4C69.5,395.4 57.4,407.6 57.4,422.5C57.4,437.5 69.6,449.6 84.5,449.6C99.5,449.6 111.6,437.4 111.6,422.5C111.6,407.5 99.5,395.4 84.5,395.4Z" style="fill:rgb(243,176,28);fill-rule:nonzero;"/>
        </g>
    </g>
</svg>
