<?xml version="1.0" encoding="iso-8859-1"?>
<!-- Generator: Adobe Illustrator 19.0.0, SVG Export Plug-In . SVG Version: 6.00 Build 0)  -->
<svg version="1.1" id="Layer_1" xmlns="http://www.w3.org/2000/svg" xmlns:xlink="http://www.w3.org/1999/xlink" x="0px" y="0px"
	 viewBox="0 0 512 512" style="enable-background:new 0 0 512 512;" xml:space="preserve">
<g>
	<g>
		<g>
			<path d="M275.183,225.919c-5.375-5.225-12.466-7.974-19.971-7.776c-14.162,0.399-25.883,11.784-26.685,25.919
				c-0.445,7.842,2.386,15.32,7.82,20.848l-2.805,23.527c-0.438,3.676,0.72,7.372,3.178,10.14c2.458,2.768,5.991,4.356,9.692,4.356
				h19.179c3.701,0,7.234-1.588,9.692-4.356s3.616-6.464,3.178-10.14l-2.806-23.528c5.024-5.126,7.866-12.027,7.866-19.257
				C283.52,238.154,280.559,231.146,275.183,225.919z M263.549,254.367c-2.98,2.58-4.482,6.45-4.017,10.353l2.651,22.225h-12.365
				l2.651-22.225c0.466-3.903-1.034-7.771-4.011-10.351c-2.728-2.363-4.176-5.79-3.971-9.402
				c0.336-5.914,5.245-10.678,11.175-10.844c3.154-0.093,6.126,1.068,8.377,3.258c2.254,2.191,3.495,5.128,3.495,8.27
				C267.534,248.996,266.081,252.173,263.549,254.367z"/>
			<path d="M432.944,35.949L274.37,1.959c-12.19-2.612-24.55-2.612-36.739,0L79.057,35.949
				c-17.251,3.698-29.773,19.187-29.773,36.83v190.68c0,144.82,143.232,223.486,187.13,244.147C242.638,510.536,249.319,512,256,512
				s13.362-1.464,19.585-4.393c26.848-12.637,78.229-40.665,120.683-86.409c44.091-47.507,66.448-100.578,66.448-157.738V72.78
				C462.716,55.137,450.195,39.647,432.944,35.949z M268.777,493.143c-8.12,3.822-17.435,3.822-25.556,0
				C217.42,481,168.069,454.091,127.449,410.324C86.19,365.868,65.271,316.457,65.271,263.46V72.78
				c0-10.154,7.207-19.07,17.136-21.199l158.573-33.99c4.982-1.068,10.001-1.602,15.019-1.602s10.036,0.534,15.019,1.602
				l158.574,33.99c9.93,2.128,17.136,11.043,17.136,21.199v190.68h0.002C446.73,398.867,310.523,473.496,268.777,493.143z"/>
			<path d="M389.995,74.847L273.734,49.928c-11.634-2.495-23.835-2.495-35.467,0L122.006,74.847
				C107.123,78.037,96.32,91.4,96.32,106.622V263.46c0,48.108,20.727,93.099,61.604,133.723
				c28.853,28.674,61.027,48.498,82.937,60.079c4.648,2.457,9.883,3.755,15.14,3.755c5.257,0,10.492-1.298,15.14-3.755
				c21.91-11.582,54.084-31.406,82.937-60.079c40.877-40.624,61.604-85.615,61.604-133.723V106.622
				C415.681,91.4,404.879,78.037,389.995,74.847z M399.696,263.46h-0.001c0,43.695-19.139,84.871-56.886,122.384
				c-27.456,27.285-58.191,46.212-79.139,57.285c-4.708,2.49-10.631,2.49-15.339,0c-20.948-11.073-51.683-29.999-79.139-57.285
				c-37.746-37.513-56.886-78.69-56.886-122.384V106.622c0-7.733,5.488-14.523,13.05-16.143l116.262-24.919
				c4.717-1.011,9.557-1.525,14.382-1.525c4.826,0,9.664,0.513,14.383,1.525l116.261,24.919c7.562,1.621,13.05,8.41,13.05,16.143
				V263.46z"/>
			<path d="M328.655,197.087V186.17c0-40.062-32.593-72.654-72.654-72.654c-40.062,0-72.654,32.593-72.654,72.654v10.917
				c-8.727,0.739-15.608,8.066-15.608,16.981V319.62c0,9.403,7.65,17.053,17.054,17.053h142.415c9.404,0,17.054-7.65,17.054-17.053
				V214.068C344.262,205.153,337.382,197.826,328.655,197.087z M199.331,186.17h0.002c0-31.247,25.421-56.667,56.667-56.667
				c31.247,0,56.667,25.421,56.667,56.667v10.843h-15.23V186.17c0-22.849-18.589-41.439-41.439-41.439s-41.439,18.589-41.439,41.439
				v10.843h-15.23V186.17z M281.452,186.17v10.843h-50.905V186.17c0-14.034,11.417-25.452,25.452-25.452
				S281.452,172.137,281.452,186.17z M328.276,319.62h-0.001c0,0.588-0.479,1.067-1.068,1.067H184.794
				c-0.589,0-1.068-0.479-1.068-1.067V214.068c0-0.588,0.479-1.068,1.068-1.068h142.415c0.589,0,1.068,0.48,1.068,1.068V319.62z"/>
		</g>
	</g>
</g>
<g>
</g>
<g>
</g>
<g>
</g>
<g>
</g>
<g>
</g>
<g>
</g>
<g>
</g>
<g>
</g>
<g>
</g>
<g>
</g>
<g>
</g>
<g>
</g>
<g>
</g>
<g>
</g>
<g>
</g>
</svg>
