<?xml version="1.0" encoding="iso-8859-1"?>
<!-- Generator: Adobe Illustrator 19.0.0, SVG Export Plug-In . SVG Version: 6.00 Build 0)  -->
<svg version="1.1" id="Layer_1" xmlns="http://www.w3.org/2000/svg" xmlns:xlink="http://www.w3.org/1999/xlink" x="0px" y="0px"
	 viewBox="0 0 512 512" style="enable-background:new 0 0 512 512;" xml:space="preserve">
<g>
	<g>
		<path d="M495.304,478.609H16.696C7.467,478.609,0,486.076,0,495.304C0,504.533,7.467,512,16.696,512h478.609
			c9.228,0,16.696-7.467,16.696-16.696C512,486.076,504.533,478.609,495.304,478.609z"/>
	</g>
</g>
<g>
	<g>
		<path d="M306.087,144.696H205.913c-9.228,0-16.696,7.467-16.696,16.696v267.13c0,9.228,7.467,16.696,16.696,16.696h100.174
			c9.228,0,16.696-7.467,16.696-16.696v-267.13C322.783,152.163,315.315,144.696,306.087,144.696z"/>
	</g>
</g>
<g>
	<g>
		<path d="M116.87,278.261H16.696C7.467,278.261,0,285.728,0,294.957v133.565c0,9.228,7.467,16.696,16.696,16.696H116.87
			c9.228,0,16.696-7.467,16.696-16.696V294.957C133.565,285.728,126.098,278.261,116.87,278.261z"/>
	</g>
</g>
<g>
	<g>
		<path d="M495.304,0H395.13c-9.228,0-16.696,7.467-16.696,16.696v411.826c0,9.228,7.467,16.696,16.696,16.696h100.174
			c9.228,0,16.696-7.467,16.696-16.696V16.696C512,7.467,504.533,0,495.304,0z"/>
	</g>
</g>
<g>
</g>
<g>
</g>
<g>
</g>
<g>
</g>
<g>
</g>
<g>
</g>
<g>
</g>
<g>
</g>
<g>
</g>
<g>
</g>
<g>
</g>
<g>
</g>
<g>
</g>
<g>
</g>
<g>
</g>
</svg>
