<?xml version="1.0" encoding="iso-8859-1"?>
<!-- Generator: Adobe Illustrator 19.0.0, SVG Export Plug-In . SVG Version: 6.00 Build 0)  -->
<svg version="1.1" id="Layer_1" xmlns="http://www.w3.org/2000/svg" xmlns:xlink="http://www.w3.org/1999/xlink" x="0px" y="0px"
	 viewBox="0 0 512 512" style="enable-background:new 0 0 512 512;" xml:space="preserve">
<g>
	<g>
		<path d="M417.425,384.019l-66.477-22.158c-0.02-0.007-0.041-0.014-0.061-0.02l-9.522-3.174
			c26.12-5.109,50.186-12.591,70.31-21.925c9.048-4.198,14.848-13.263,14.775-23.098C425.446,179.001,406.687,0,256,0
			S86.554,179.001,85.551,313.644c-0.073,9.834,5.727,18.9,14.775,23.097c20.124,9.334,44.189,16.815,70.309,21.924l-9.529,3.177
			c-0.017,0.005-0.033,0.011-0.049,0.016l-66.481,22.16c-20.766,6.922-34.718,26.28-34.718,48.168v54.695
			c0,13.851,11.268,25.119,25.119,25.119h342.046c13.851,0,25.119-11.268,25.119-25.119v-54.695
			C452.142,410.298,438.191,390.94,417.425,384.019z M107.071,322.197c-3.36-1.56-5.513-4.87-5.487-8.434
			c0.698-93.765,11.088-162.768,31.762-210.953C158.401,44.419,198.522,16.033,256,16.033s97.599,28.386,122.653,86.777
			c20.675,48.185,31.065,117.188,31.762,210.951c0.027,3.565-2.128,6.875-5.489,8.435c-22.393,10.386-50.12,18.373-80.259,23.143
			c-0.513-1.659-0.794-3.411-0.794-5.215v-24.266c0-0.033-0.004-0.065-0.005-0.098l19.469-13.628
			c8.824-6.176,15.642-14.491,19.973-24.022c5.389-4.915,9.095-9.939,11.64-14.447c0,0,0.608,0.011,0.779,0.011
			c6.611,0,12.833-2.539,17.569-7.182c4.859-4.763,7.535-11.134,7.535-17.938v-33.806c0-6.724-2.623-13.043-7.385-17.79
			c-4.763-4.748-11.094-7.368-17.814-7.329l-1.4,0.004c0.28-5.451,0.501-11.23,0.67-17.48c0.059-2.162-0.76-4.257-2.269-5.808
			c-1.154-1.185-2.637-1.976-4.238-2.282c-4.032-1.707-22.294-10.739-33.332-38.18c-0.877-2.181-2.666-3.866-4.894-4.611
			c-2.23-0.745-4.672-0.475-6.684,0.739c-12.968,7.823-85.499,39.837-178.547,41.723c-2.135,0.044-4.164,0.936-5.637,2.481
			c-1.474,1.545-2.271,3.614-2.214,5.749c0.169,6.324,0.392,12.159,0.674,17.67l-1.4-0.004c-0.028,0-0.055,0-0.082,0
			c-6.694,0-12.988,2.602-17.732,7.329c-4.763,4.747-7.385,11.065-7.385,17.79v33.806c0,6.805,2.675,13.175,7.535,17.938
			c4.736,4.643,10.957,7.182,17.569,7.182c0.172,0,7.954-0.154,7.954-0.154c2.647,15.581,11.344,29.446,24.439,38.613l19.469,13.628
			c0,0.033-0.005,0.065-0.005,0.098v24.266c0,1.804-0.281,3.556-0.794,5.215C157.192,340.57,129.464,332.583,107.071,322.197z
			 M268.827,273.637h-8.551c-11.493,0-20.843,9.351-20.843,20.843c0,11.493,9.351,20.843,20.843,20.843h8.551
			c8.475,0,15.772-5.092,19.026-12.371c12.315-0.562,22.99-2.027,32.253-4.129l-37.599,26.32
			c-7.805,5.463-16.967,8.351-26.518,8.351c-9.527,0-18.687-2.888-26.494-8.351l-51.638-36.147
			c-10.656-7.46-17.34-19.175-18.336-32.132l-5.255-69.726c-0.369-5.481-0.665-11.294-0.897-17.612
			c81.795-3.128,146.125-27.732,170.463-39.578c11.279,22.484,26.854,33.022,34.882,37.225c-0.243,7.209-0.564,13.773-0.979,19.933
			l-5.255,69.745c-0.311,4.042-1.175,7.961-2.538,11.668c-10.848,8.708-29.551,16.743-61.731,18.354
			C285.166,279.136,277.634,273.637,268.827,273.637z M273.637,294.48c0,2.652-2.158,4.81-4.81,4.81h-8.551
			c-2.652,0-4.81-2.158-4.81-4.81s2.158-4.81,4.81-4.81h8.551C271.479,289.67,273.637,291.828,273.637,294.48z M204.159,340.124
			v-13.143L220.3,338.28c10.514,7.359,22.854,11.249,35.713,11.249c12.833,0,25.174-3.89,35.687-11.249l16.141-11.3v13.144
			c0,14.516,9.252,27.352,23.023,31.942l4.165,1.388c-19.469,23.938-49.237,51.563-79.031,62.201
			c-29.792-10.638-59.562-38.263-79.031-62.201l4.166-1.388C194.906,367.476,204.159,354.639,204.159,340.124z M369.264,247.512
			l3.906-51.842l2.517-0.009c2.408-0.008,4.72,0.934,6.443,2.651c1.722,1.717,2.671,4.002,2.671,6.435v33.806
			c0,2.462-0.968,4.765-2.726,6.488c-1.757,1.723-4.065,2.652-6.541,2.596L369.264,247.512z M142.736,247.513l-6.271,0.125
			c-2.456,0.048-4.784-0.873-6.542-2.595c-1.757-1.723-2.726-4.028-2.726-6.488v-33.806c0-2.432,0.949-4.717,2.671-6.435
			c1.722-1.718,3.983-2.649,6.443-2.651l2.518,0.008L142.736,247.513z M128.267,495.967h-43.29c-5.01,0-9.086-4.076-9.086-9.086
			v-54.695c0-5.741,1.413-11.221,3.943-16.071l40.762,40.762c4.946,4.947,7.67,11.523,7.67,18.518V495.967z M367.699,475.396v20.571
			H144.301v-20.571c0-11.278-4.392-21.88-12.366-29.855l-41.564-41.563c2.788-2,5.894-3.62,9.275-4.748l61.124-20.375
			c32.24,41.908,68.772,65.101,92.753,72.894c0.805,0.262,1.642,0.392,2.478,0.392s1.673-0.13,2.478-0.392
			c23.982-7.794,60.513-30.987,92.753-72.894l61.124,20.375c3.381,1.128,6.487,2.748,9.275,4.748l-41.564,41.563
			C372.091,453.515,367.699,464.118,367.699,475.396z M436.109,486.881c0,5.01-4.076,9.086-9.086,9.086h-43.29v-20.571
			c0-6.995,2.724-13.571,7.67-18.518l40.762-40.762c2.53,4.85,3.943,10.33,3.943,16.071V486.881z"/>
	</g>
</g>
<g>
</g>
<g>
</g>
<g>
</g>
<g>
</g>
<g>
</g>
<g>
</g>
<g>
</g>
<g>
</g>
<g>
</g>
<g>
</g>
<g>
</g>
<g>
</g>
<g>
</g>
<g>
</g>
<g>
</g>
</svg>
