<?xml version="1.0" encoding="iso-8859-1"?>
<!-- Generator: Adobe Illustrator 16.0.0, SVG Export Plug-In . SVG Version: 6.00 Build 0)  -->
<!DOCTYPE svg PUBLIC "-//W3C//DTD SVG 1.1//EN" "http://www.w3.org/Graphics/SVG/1.1/DTD/svg11.dtd">
<svg version="1.1" id="Capa_1" xmlns="http://www.w3.org/2000/svg" xmlns:xlink="http://www.w3.org/1999/xlink" x="0px" y="0px"
	 width="466.608px" height="466.608px" viewBox="0 0 466.608 466.608" style="enable-background:new 0 0 466.608 466.608;"
	 xml:space="preserve">
<g>
	<path d="M375.941,0H90.666c-5.126,0-9.272,4.153-9.272,9.275v84.312c0,5.122,4.146,9.272,9.272,9.272h285.276
		c5.131,0,9.273-4.15,9.273-9.272V9.281C385.215,4.153,381.072,0,375.941,0z M233.306,73.405H111.544V24.701h121.762V73.405z
		 M375.941,124.379H90.666c-5.126,0-9.272,4.15-9.272,9.272v84.315c0,5.125,4.146,9.278,9.272,9.278h285.276
		c5.131,0,9.273-4.153,9.273-9.278v-84.315C385.215,128.529,381.072,124.379,375.941,124.379z M233.306,196.528H111.544v-48.705
		h121.762V196.528z M375.941,247.553H90.666c-5.126,0-9.272,4.159-9.272,9.281v84.312c0,5.121,4.146,9.269,9.272,9.269h285.276
		c5.131,0,9.273-4.147,9.273-9.269v-84.312C385.215,251.712,381.072,247.553,375.941,247.553z M233.306,323.341H111.544V274.64
		h121.762V323.341z M297.648,437.508h72.775v13.287h-72.657v0.623c0,8.395-6.796,15.19-15.18,15.19h-98.574
		c-8.383,0-15.186-6.796-15.186-15.19v-0.623H96.178v-13.287h72.778c0.648-7.792,7.105-13.92,15.057-13.92h30.252v-30.358
		c0-8.384,6.795-15.191,15.179-15.191h7.592c8.385,0,15.182,6.808,15.182,15.191v30.358h30.369
		C290.543,423.588,296.99,429.728,297.648,437.508z"/>
</g>
<g>
</g>
<g>
</g>
<g>
</g>
<g>
</g>
<g>
</g>
<g>
</g>
<g>
</g>
<g>
</g>
<g>
</g>
<g>
</g>
<g>
</g>
<g>
</g>
<g>
</g>
<g>
</g>
<g>
</g>
</svg>
