<?xml version="1.0" encoding="iso-8859-1"?>
<!-- Generator: Adobe Illustrator 19.0.0, SVG Export Plug-In . SVG Version: 6.00 Build 0)  -->
<svg xmlns="http://www.w3.org/2000/svg" xmlns:xlink="http://www.w3.org/1999/xlink" version="1.1" id="Layer_1" x="0px" y="0px" viewBox="0 0 512 512" style="enable-background:new 0 0 512 512;" xml:space="preserve" width="512px" height="512px">
<g>
	<g>
		<path d="M473.657,446.881l-18.346-10.484c6.154-1.804,11.912-3.897,17.22-6.275c5.843-2.617,9.587-8.345,9.539-14.591    c-0.345-44.811-5.585-78.3-16.017-102.38c-13.817-31.894-37.018-48.065-68.958-48.065c-31.94,0-55.141,16.171-68.96,48.065    c-4.095,9.451-7.386,20.36-9.899,32.826l-49.943-34.336v-64.726h77.495c13.851,0,25.119-11.268,25.119-25.119v-16.427    c0-13.957-8.78-26.625-21.848-31.526l-40.666-15.25c-2.65-0.994-4.644-3.171-5.474-5.79l4.053-3.04    c7.859-5.894,12.74-14.895,13.393-24.696L325.7,45.03c0.775-11.616-3.342-23.153-11.295-31.653C306.452,4.876,295.215,0,283.572,0    h-46.594c-11.641,0-22.879,4.876-30.831,13.376c-7.953,8.501-12.07,20.039-11.296,31.653l5.336,80.037    c0.653,9.801,5.536,18.803,13.393,24.696l4.053,3.04c-0.828,2.619-2.824,4.796-5.474,5.79l-40.666,15.25    c-13.068,4.901-21.848,17.57-21.848,31.527v16.427c0,13.851,11.268,25.119,25.119,25.119h77.495v64.726l-57.565,39.576    l2.74-41.101c0.775-11.616-3.342-23.153-11.295-31.653c-7.954-8.5-19.191-13.376-30.833-13.376h-46.594    c-11.641,0-22.879,4.876-30.831,13.376c-7.953,8.501-12.07,20.039-11.296,31.653l5.336,80.037    c0.653,9.801,5.536,18.803,13.393,24.696l4.053,3.04c-0.828,2.619-2.824,4.796-5.474,5.79l-40.666,15.25    c-13.068,4.901-21.848,17.57-21.848,31.527v16.427c0,13.851,11.268,25.119,25.119,25.119H217.52    c13.851,0,25.119-11.268,25.119-25.119v-16.427c0-13.957-8.78-26.625-21.848-31.526l-40.666-15.25    c-2.65-0.994-4.644-3.171-5.474-5.79l4.053-3.04c7.859-5.894,12.74-14.895,13.393-24.696l1.237-18.544l66.942-46.022l55.08,37.867    c-2.016,15.334-3.088,32.639-3.239,52.078c-0.048,6.247,3.696,11.975,9.54,14.591c5.307,2.378,11.064,4.472,17.219,6.277    l-18.344,10.483c-10.464,5.979-16.965,17.181-16.965,29.234v10.766c0,13.851,11.268,25.119,25.119,25.119h136.818    c13.851,0,25.119-11.268,25.119-25.119v-10.766C490.622,464.062,484.121,452.86,473.657,446.881z M186.024,443.014l29.137,10.926    c6.845,2.567,11.445,9.204,11.445,16.514v16.427c0,5.01-4.076,9.086-9.086,9.086H46.497c-5.01,0-9.086-4.076-9.086-9.086v-16.427    c0-7.31,4.599-13.947,11.444-16.513l29.138-10.926c9.545,20.996,30.64,34.781,54.015,34.781    C155.382,477.795,176.479,464.011,186.024,443.014z M92.926,437.106c3.997-2.237,7.265-5.52,9.513-9.412l0.816,0.611    c5.79,4.343,12.965,6.734,20.202,6.734h17.102c7.237,0,14.412-2.391,20.202-6.734l0.814-0.611    c2.248,3.893,5.517,7.174,9.513,9.412c-7.117,14.913-22.293,24.656-39.081,24.656C115.218,461.762,100.043,452.019,92.926,437.106    z M176.1,389.085c-0.343,5.135-2.9,9.851-7.016,12.937l-17.942,13.457c-3.032,2.275-6.792,3.527-10.582,3.527h-17.102    c-3.79,0-7.55-1.253-10.582-3.527l-17.943-13.457c-4.116-3.087-6.673-7.802-7.015-12.937l-2.66-39.906    c14.292-1.275,63.014-6.484,94.867-20.461L176.1,389.085z M181.435,309.049l-0.079,1.182    c-27.248,15.519-81.868,21.52-97.167,22.935l-1.608-24.117c-0.487-7.31,2-14.283,7.005-19.633    c5.006-5.35,11.797-8.297,19.124-8.297h46.594c7.326,0,14.118,2.947,19.124,8.297    C179.434,294.767,181.922,301.739,181.435,309.049z M210.849,43.964c-0.487-7.31,2-14.283,7.006-19.633    c5.006-5.35,11.797-8.297,19.124-8.297h46.594c7.326,0,14.118,2.947,19.124,8.297c5.006,5.351,7.494,12.323,7.007,19.633    l-0.079,1.182c-27.248,15.519-81.868,21.52-97.167,22.935L210.849,43.964z M216.185,123.999l-2.661-39.905    c14.292-1.275,63.015-6.484,94.867-20.461l-2.109,31.631c0,0.002-0.001,0.004-0.001,0.006    c-0.883,13.25-12.849,24.446-26.129,24.446h-19.877c-4.427,0-8.017,3.589-8.017,8.017s3.589,8.017,8.017,8.017h19.877    c8.495,0,16.544-2.698,23.299-7.268c-1.13,3.336-3.223,6.298-6.099,8.456l-17.944,13.456c-3.032,2.275-6.792,3.527-10.582,3.527    h-17.102c-3.79,0-7.55-1.253-10.582-3.527L223.2,136.936C219.084,133.849,216.527,129.134,216.185,123.999z M297.05,170.542    l-36.774,24.516L223.5,170.541c2.953-2.11,5.41-4.822,7.206-7.933l0.816,0.612c5.79,4.343,12.965,6.734,20.202,6.734h17.102    c7.237,0,14.412-2.391,20.202-6.734l0.815-0.611C291.64,165.72,294.098,168.432,297.05,170.542z M174.765,230.881    c-5.011,0-9.087-4.076-9.087-9.086v-16.427c0-7.31,4.599-13.947,11.444-16.513l28.764-10.786l49.943,33.295    c1.347,0.898,2.897,1.347,4.447,1.347c1.55,0,3.1-0.449,4.447-1.347l49.943-33.295l28.764,10.786    c6.845,2.566,11.445,9.203,11.445,16.513v16.427c0,5.01-4.076,9.086-9.086,9.086H174.765z M328.212,415.49    c-0.025-0.01-0.044-0.021-0.061-0.03c0.342-42.52,5.149-73.901,14.695-95.935c11.197-25.843,28.941-38.405,54.247-38.405    c25.306,0,43.051,12.563,54.247,38.405c9.546,22.034,14.353,53.417,14.695,95.935c-0.017,0.01-0.036,0.02-0.06,0.031    c-8.754,3.922-19.426,7.093-30.998,9.255c-2.603-1.66-4.214-4.542-4.214-7.647c0-0.304-0.02-0.602-0.053-0.897l0.808-0.485    c10.083-6.05,16.347-17.113,16.347-28.872v-45.333c0-2.126-0.844-4.164-2.348-5.668l-17.102-17.102    c-3.131-3.131-8.207-3.131-11.337,0c-5.652,5.652-18.4,10.152-35.894,12.67c-14.252,2.051-26.724,2.084-26.846,2.084    c-4.427,0-8.017,3.589-8.017,8.017v45.333c0,11.759,6.264,22.823,16.347,28.872l0.809,0.485c-0.033,0.294-0.053,0.593-0.053,0.896    c0,3.105-1.611,5.987-4.214,7.647C347.641,422.584,336.964,419.41,328.212,415.49z M378.165,425.015l6.006,3.604    c3.986,2.391,8.455,3.587,12.924,3.587c4.469,0,8.938-1.196,12.924-3.587l6.006-3.604c1.928,5.786,5.926,10.786,11.363,13.893    l4.499,2.571c-4.001,5.367-17.024,21.366-34.79,28.327c-17.669-6.934-30.765-22.962-34.787-28.33l4.49-2.568    C372.239,435.801,376.236,430.8,378.165,425.015z M362.355,386.844v-37.557c5.317-0.264,12.787-0.818,20.909-1.977    c16.975-2.425,29.989-6.522,38.836-12.211l9.733,9.733v42.013c0,6.159-3.281,11.953-8.563,15.123l-21.502,12.902    c-2.883,1.729-6.466,1.729-9.349,0l-21.502-12.902C365.636,398.8,362.355,393.004,362.355,386.844z M474.591,486.881h-0.002    c0,5.01-4.076,9.086-9.086,9.086H328.685c-5.01,0-9.086-4.076-9.086-9.086v-10.766c0-6.313,3.406-12.181,8.887-15.313    l19.811-11.321c3.49,4.939,20.836,27.978,46.263,36.454c0.823,0.275,1.679,0.412,2.535,0.412s1.712-0.137,2.535-0.412    c25.427-8.475,42.772-31.514,46.263-36.454l19.811,11.32c5.481,3.133,8.887,9,8.887,15.313V486.881z" fill="#FFFFFF"/>
	</g>
</g>
<g>
</g>
<g>
</g>
<g>
</g>
<g>
</g>
<g>
</g>
<g>
</g>
<g>
</g>
<g>
</g>
<g>
</g>
<g>
</g>
<g>
</g>
<g>
</g>
<g>
</g>
<g>
</g>
<g>
</g>
</svg>
