<?xml version="1.0" encoding="iso-8859-1"?>
<!-- Generator: Adobe Illustrator 19.0.0, SVG Export Plug-In . SVG Version: 6.00 Build 0)  -->
<svg xmlns="http://www.w3.org/2000/svg" xmlns:xlink="http://www.w3.org/1999/xlink" version="1.1" id="Layer_1" x="0px" y="0px" viewBox="0 0 512.002 512.002" style="enable-background:new 0 0 512.002 512.002;" xml:space="preserve" width="512px" height="512px">
<g>
	<g>
		<path d="M256,76.962c-98.723,0-179.04,80.317-179.04,179.04s80.317,179.04,179.04,179.04s179.04-80.317,179.04-179.04    S354.723,76.962,256,76.962z M247.983,418.809c-32.173-1.566-61.924-12.502-86.58-30.132v-29.386    c0-7.31,4.599-13.947,11.445-16.513l28.763-10.787l46.373,30.916V418.809z M304.115,217.556l-2.11,31.644    c-0.886,13.248-12.85,24.439-26.128,24.439H256c-4.427,0-8.017,3.589-8.017,8.017s3.589,8.017,8.017,8.017h19.877    c8.495,0,16.544-2.698,23.299-7.268c-1.13,3.336-3.223,6.298-6.099,8.456l-17.944,13.456c-3.032,2.275-6.792,3.527-10.582,3.527    h-17.102c-3.79,0-7.55-1.253-10.582-3.527l-17.942-13.457c-4.116-3.087-6.673-7.802-7.015-12.937l-2.661-39.906    C223.541,236.741,272.263,231.531,304.115,217.556z M208.182,222.003l-1.609-24.117c-0.487-7.31,2.001-14.283,7.007-19.633    c5.006-5.35,11.797-8.297,19.124-8.297h46.594c7.326,0,14.118,2.947,19.124,8.297c5.006,5.351,7.494,12.323,7.007,19.633    l-0.079,1.182C278.1,214.587,223.481,220.588,208.182,222.003z M219.225,324.463c2.953-2.109,5.41-4.821,7.208-7.932l0.815,0.611    c5.79,4.343,12.965,6.734,20.202,6.734h17.102c7.237,0,14.412-2.391,20.202-6.734l0.815-0.611    c1.797,3.112,4.254,5.823,7.206,7.933L256,348.98L219.225,324.463z M350.598,388.677h-0.001    c-24.656,17.63-54.408,28.566-86.58,30.132v-55.903l46.373-30.915l28.764,10.786c6.845,2.566,11.445,9.203,11.445,16.513V388.677z     M366.63,375.6v-16.309c0-13.957-8.78-26.626-21.848-31.526l-40.666-15.25c-2.65-0.994-4.644-3.171-5.474-5.79l4.053-3.04    c7.859-5.894,12.74-14.895,13.393-24.696l1.914-28.724c0-0.002,0-0.004,0.001-0.006c0-0.001,0-0.002,0-0.003l3.42-51.303    c0.775-11.616-3.342-23.153-11.295-31.653c-7.954-8.501-19.191-13.377-30.833-13.377h-46.594c-11.641,0-22.88,4.876-30.832,13.377    s-12.07,20.037-11.295,31.653l5.336,80.037c0.653,9.801,5.536,18.803,13.393,24.696l4.053,3.04    c-0.828,2.619-2.824,4.796-5.474,5.79l-40.666,15.25c-13.068,4.9-21.848,17.57-21.848,31.526V375.6    c-32.189-29.797-52.376-72.381-52.376-119.599c0-89.882,73.124-163.006,163.006-163.006s163.006,73.124,163.006,163.006    C419.006,303.219,398.819,345.804,366.63,375.6z" fill="#FFFFFF"/>
	</g>
</g>
<g>
	<g>
		<path d="M509.323,219.34c-1.166-8.044-8.23-14.11-16.431-14.11h-12.204c-5.774-25.722-15.81-49.962-29.898-72.217l8.604-8.604    c5.807-5.807,6.507-15.101,1.629-21.619c-14.716-19.663-32.149-37.096-51.812-51.814c-6.517-4.877-15.811-4.178-21.619,1.629    l-8.604,8.604c-22.254-14.088-46.495-24.124-72.217-29.897V19.109c0-8.202-6.066-15.265-14.109-16.431    C280.419,0.903,268.084,0.002,256,0.002c-12.084,0-24.419,0.901-36.663,2.677c-8.043,1.166-14.109,8.229-14.109,16.431v12.204    c-25.722,5.773-49.962,15.809-72.217,29.897l-8.604-8.604c-5.807-5.807-15.101-6.506-21.619-1.628    c-19.662,14.715-37.096,32.149-51.813,51.812c-4.877,6.518-4.177,15.812,1.629,21.619l8.604,8.604    C47.12,155.268,37.084,179.508,31.31,205.23H19.108c-8.201,0-15.265,6.066-16.431,14.109C0.9,231.584,0,243.92,0,256.002    c0,12.082,0.9,24.417,2.677,36.663c1.166,8.043,8.23,14.109,16.431,14.109h12.204c5.774,25.722,15.81,49.961,29.898,72.216    l-8.604,8.604c-5.808,5.807-6.508,15.101-1.629,21.619c14.718,19.663,32.149,37.096,51.812,51.813    c6.518,4.877,15.811,4.178,21.619-1.629l8.604-8.604c22.254,14.088,46.494,24.124,72.217,29.897v12.204    c0,8.202,6.066,15.265,14.109,16.431c12.245,1.775,24.58,2.677,36.663,2.677c12.083,0,24.419-0.901,36.663-2.677    c8.043-1.166,14.109-8.229,14.109-16.431v-12.204c25.722-5.774,49.961-15.809,72.217-29.897l8.604,8.605    c5.807,5.806,15.101,6.505,21.619,1.628c19.663-14.718,37.096-32.149,51.813-51.813c4.878-6.519,4.178-15.813-1.629-21.62    l-8.604-8.604c14.088-22.253,24.123-46.494,29.898-72.217h12.204c8.201,0,15.265-6.066,16.431-14.109    c1.776-12.246,2.676-24.581,2.676-36.663C512,243.92,511.1,231.584,509.323,219.34z M493.456,290.363    c-0.026,0.177-0.273,0.377-0.563,0.377h-18.713c-3.836,0-7.135,2.718-7.868,6.483c-5.494,28.195-16.409,54.557-32.439,78.354    c-2.143,3.181-1.733,7.435,0.98,10.147l13.206,13.206c0.204,0.204,0.237,0.53,0.129,0.674    c-13.799,18.438-30.146,34.784-48.584,48.583c-0.142,0.108-0.469,0.075-0.674-0.13l-13.205-13.205    c-2.712-2.713-6.966-3.123-10.148-0.98c-23.797,16.031-50.159,26.945-78.353,32.439c-3.766,0.734-6.483,4.032-6.483,7.869v18.713    c0,0.291-0.199,0.538-0.377,0.563c-11.486,1.666-23.047,2.511-34.363,2.511s-22.876-0.844-34.362-2.511    c-0.179-0.026-0.377-0.273-0.377-0.563v-18.713c0-3.836-2.717-7.135-6.483-7.869c-28.194-5.494-54.557-16.409-78.353-32.439    c-1.364-0.918-2.924-1.368-4.477-1.368c-2.068,0-4.122,0.798-5.672,2.348l-13.205,13.205c-0.204,0.204-0.53,0.239-0.676,0.13    c-18.438-13.799-34.784-30.145-48.584-48.583c-0.108-0.143-0.075-0.469,0.13-0.674l13.206-13.206    c2.713-2.713,3.123-6.966,0.98-10.148c-16.031-23.797-26.945-50.159-32.439-78.353c-0.733-3.765-4.032-6.483-7.868-6.483H19.108    c-0.291,0-0.538-0.2-0.563-0.377c-1.666-11.486-2.511-23.047-2.511-34.362s0.844-22.875,2.511-34.362    c0.026-0.179,0.273-0.377,0.563-0.377h18.713c3.836,0,7.135-2.718,7.868-6.483c5.494-28.194,16.409-54.556,32.439-78.354    c2.143-3.181,1.733-7.435-0.98-10.147l-13.206-13.205c-0.204-0.204-0.237-0.531-0.13-0.676    c13.799-18.438,30.146-34.784,48.584-48.583c0.144-0.108,0.47-0.074,0.674,0.129l13.205,13.206    c2.712,2.712,6.965,3.123,10.148,0.98c23.797-16.031,50.159-26.945,78.353-32.439c3.766-0.734,6.483-4.032,6.483-7.868V19.109    c0-0.291,0.199-0.538,0.377-0.563c11.487-1.666,23.049-2.511,34.364-2.511s22.876,0.844,34.362,2.511    c0.178,0.026,0.377,0.273,0.377,0.563v18.713c0,3.836,2.717,7.135,6.483,7.868c28.194,5.494,54.556,16.409,78.353,32.439    c3.182,2.143,7.435,1.733,10.148-0.98l13.205-13.205c0.206-0.204,0.533-0.237,0.676-0.13    c18.438,13.799,34.784,30.145,48.583,48.583c0.108,0.144,0.075,0.47-0.129,0.676l-13.205,13.205    c-2.713,2.713-3.123,6.967-0.98,10.148c16.031,23.798,26.945,50.16,32.439,78.354c0.733,3.765,4.032,6.483,7.868,6.483h18.713    c0.291,0,0.538,0.199,0.563,0.377c1.666,11.486,2.511,23.047,2.511,34.362S495.122,278.877,493.456,290.363z" fill="#FFFFFF"/>
	</g>
</g>
<g>
</g>
<g>
</g>
<g>
</g>
<g>
</g>
<g>
</g>
<g>
</g>
<g>
</g>
<g>
</g>
<g>
</g>
<g>
</g>
<g>
</g>
<g>
</g>
<g>
</g>
<g>
</g>
<g>
</g>
</svg>
