<?xml version="1.0" encoding="iso-8859-1"?>
<!-- Generator: Adobe Illustrator 19.0.0, SVG Export Plug-In . SVG Version: 6.00 Build 0)  -->
<svg version="1.1" id="Layer_1" xmlns="http://www.w3.org/2000/svg" xmlns:xlink="http://www.w3.org/1999/xlink" x="0px" y="0px"
	 viewBox="0 0 512.01 512.01" style="enable-background:new 0 0 512.01 512.01;" xml:space="preserve">
<g>
	<g>
		<g>
			<polygon points="114.877,477.304 114.877,393.846 4.224,393.846 4.224,477.304 21.105,477.304 21.105,410.724 97.997,410.724 
				97.997,477.304 			"/>
			<polygon points="246.159,477.304 246.159,262.564 135.506,262.564 135.506,477.304 152.387,477.304 152.387,279.442 
				229.281,279.442 229.281,477.304 			"/>
			<polygon points="377.441,477.304 377.441,131.282 266.79,131.282 266.79,477.304 283.668,477.304 283.668,148.16 360.563,148.16 
				360.563,477.304 			"/>
			<polygon points="398.07,0 398.07,477.304 414.95,477.304 414.95,16.878 491.845,16.878 491.845,477.304 508.723,477.304 
				508.723,0 			"/>
			<rect x="4.224" y="495.13" width="504.499" height="16.881"/>
			<rect x="3.287" y="262.554" width="18.755" height="16.878"/>
			<rect x="47.048" y="262.554" width="18.752" height="16.878"/>
			<rect x="90.811" y="262.554" width="18.755" height="16.878"/>
			<rect x="3.287" y="131.277" width="18.755" height="16.878"/>
			<rect x="47.053" y="131.277" width="18.755" height="16.878"/>
			<rect x="90.811" y="131.277" width="18.755" height="16.878"/>
			<rect x="134.559" y="131.277" width="18.755" height="16.878"/>
			<rect x="178.335" y="131.277" width="18.755" height="16.878"/>
			<rect x="222.085" y="131.277" width="18.755" height="16.878"/>
			<rect x="3.287" width="18.755" height="16.878"/>
			<rect x="47.053" y="0" width="18.755" height="16.878"/>
			<rect x="90.811" width="18.755" height="16.878"/>
			<rect x="134.559" width="18.755" height="16.878"/>
			<rect x="178.335" width="18.755" height="16.878"/>
			<rect x="222.085" width="18.755" height="16.878"/>
			<rect x="265.861" width="18.755" height="16.878"/>
			<rect x="309.612" width="18.755" height="16.878"/>
			<rect x="353.362" width="18.755" height="16.878"/>
		</g>
	</g>
</g>
<g>
</g>
<g>
</g>
<g>
</g>
<g>
</g>
<g>
</g>
<g>
</g>
<g>
</g>
<g>
</g>
<g>
</g>
<g>
</g>
<g>
</g>
<g>
</g>
<g>
</g>
<g>
</g>
<g>
</g>
</svg>
