<?xml version="1.0" encoding="iso-8859-1"?>
<!-- Generator: Adobe Illustrator 19.0.0, SVG Export Plug-In . SVG Version: 6.00 Build 0)  -->
<svg version="1.1" id="Layer_1" xmlns="http://www.w3.org/2000/svg" xmlns:xlink="http://www.w3.org/1999/xlink" x="0px" y="0px"
	 viewBox="0 0 512 512" style="enable-background:new 0 0 512 512;" xml:space="preserve">
<g>
	<g>
		<path d="M501.961,31.612H10.039C4.495,31.612,0,36.108,0,41.651v360.431c0,5.544,4.495,10.039,10.039,10.039h185.725v48.188
			h-33.129c-5.545,0-10.039,4.495-10.039,10.039c0,5.544,4.495,10.039,10.039,10.039h43.169h100.392h43.169
			c5.544,0,10.039-4.496,10.039-10.039c0-5.545-4.496-10.039-10.039-10.039h-33.129v-48.188h185.726
			c5.544,0,10.039-4.496,10.039-10.039V41.651C512,36.107,507.504,31.612,501.961,31.612z M296.157,460.309h-80.314V412.12h80.314
			V460.309z M491.922,392.042H306.196v0H205.804H20.078v-38.129h393.37c5.544,0,10.039-4.495,10.039-10.039
			c0-5.544-4.496-10.039-10.039-10.039H20.078V217.449h19.967l23.069,89.891c1.133,4.415,5.097,7.511,9.654,7.544
			c0.023,0,0.047,0,0.071,0c4.528,0,8.498-3.033,9.687-7.407l42.677-157.065l14.169,59.263c1.079,4.518,5.119,7.705,9.764,7.705
			h69.383c5.544,0,10.039-4.496,10.039-10.039c0-5.545-4.496-10.039-10.039-10.039h-61.462l-21.47-89.797
			c-1.067-4.462-5.023-7.634-9.61-7.704c-4.604-0.038-8.639,2.979-9.842,7.406l-43.02,158.331l-15.558-60.625
			c-1.141-4.44-5.141-7.544-9.725-7.544H20.078V51.69h471.843v146.967c-1.479-0.855-3.189-1.354-5.02-1.354h-20.831
			c-5.544,0-10.039,4.496-10.039,10.039s4.496,10.039,10.039,10.039h20.831c1.83,0,3.541-0.498,5.02-1.354v121.62
			c-1.839-2.32-4.675-3.812-7.865-3.812h-38.316c-5.544,0-10.039,4.496-10.039,10.039c0,5.545,4.496,10.039,10.039,10.039h38.316
			c3.189,0,6.026-1.492,7.865-3.812V392.042z"/>
	</g>
</g>
<g>
	<g>
		<path d="M440.889,197.426h-12.46l-27.178-105.81c-1.14-4.438-5.141-7.542-9.724-7.542c-4.583,0-8.585,3.105-9.724,7.544
			l-46.512,181.236l-44.764-110.242c-1.489-3.667-4.995-6.118-8.95-6.256c-3.975-0.133-7.624,2.061-9.366,5.614l-17.324,35.333
			H247.3c-5.545,0-10.039,4.495-10.039,10.039c0,5.544,4.495,10.039,10.039,10.039h13.847c3.83,0,7.328-2.181,9.013-5.62
			l10.203-20.81l47.78,117.671c1.545,3.805,5.237,6.262,9.298,6.262c0.226,0,0.452-0.008,0.679-0.022
			c4.324-0.291,7.972-3.324,9.05-7.52l44.362-172.859l19.389,75.481c1.14,4.438,5.141,7.541,9.723,7.541h20.246
			c5.544,0,10.038-4.495,10.038-10.039C450.928,201.921,446.434,197.426,440.889,197.426z"/>
	</g>
</g>
<g>
</g>
<g>
</g>
<g>
</g>
<g>
</g>
<g>
</g>
<g>
</g>
<g>
</g>
<g>
</g>
<g>
</g>
<g>
</g>
<g>
</g>
<g>
</g>
<g>
</g>
<g>
</g>
<g>
</g>
</svg>
