<?xml version="1.0" encoding="iso-8859-1"?>
<!-- Generator: Adobe Illustrator 19.0.0, SVG Export Plug-In . SVG Version: 6.00 Build 0)  -->
<svg version="1.1" id="Layer_1" xmlns="http://www.w3.org/2000/svg" xmlns:xlink="http://www.w3.org/1999/xlink" x="0px" y="0px"
	 viewBox="0 0 512 512" style="enable-background:new 0 0 512 512;" xml:space="preserve">
<g>
	<g>
		<path d="M438.55,188.698c-4.112-1.645-8.777,0.355-10.421,4.467l-7.449,18.622c-8.814-32.834-27.399-62.552-53.455-84.999
			C336.332,100.17,296.831,85.511,256,85.511c-27.996,0-55.388,6.839-79.894,19.854c-2.523-23.165-7.035-42.108-13.618-57.3
			C148.669,16.171,125.468,0,93.528,0c-31.94,0-55.141,16.171-68.96,48.065c-10.432,24.08-15.671,57.568-16.017,102.38
			c-0.048,6.247,3.696,11.975,9.539,14.591c5.305,2.377,11.061,4.471,17.219,6.277l-18.344,10.483
			C6.501,187.775,0,198.977,0,211.029v10.766c0,13.851,11.268,25.119,25.119,25.119h136.818c13.851,0,25.119-11.268,25.119-25.119
			v-10.766c0-12.052-6.501-23.254-16.966-29.234l-18.34-10.481c6.156-1.804,11.909-3.901,17.214-6.279
			c5.841-2.617,9.587-8.345,9.54-14.591c-0.075-9.698-0.379-18.864-0.916-27.521c23.689-13.984,50.718-21.379,78.412-21.379
			c36.991,0,72.775,13.279,100.761,37.389c24.585,21.18,41.826,49.492,49.374,80.691l-17.058-12.794
			c-3.541-2.656-8.567-1.938-11.223,1.603c-2.656,3.541-1.938,8.567,1.603,11.223l34.205,25.653c1.403,1.052,3.094,1.603,4.81,1.603
			c0.724,0,1.452-0.098,2.163-0.297c2.402-0.673,4.353-2.426,5.278-4.743l17.102-42.756
			C444.661,195.008,442.661,190.343,438.55,188.698z M162.138,195.718c5.481,3.133,8.887,9,8.887,15.313v10.765
			c0,5.01-4.076,9.086-9.086,9.086H25.121c-5.012,0-9.088-4.076-9.088-9.086v-10.766c0-6.313,3.406-12.181,8.887-15.313
			l19.811-11.32c3.49,4.939,20.836,27.978,46.263,36.454c0.823,0.275,1.679,0.411,2.535,0.411c0.856,0,1.712-0.137,2.535-0.411
			c25.427-8.476,42.773-31.515,46.263-36.454L162.138,195.718z M74.586,159.921l6.019,3.611c3.986,2.391,8.455,3.587,12.924,3.587
			s8.938-1.196,12.924-3.587l6.019-3.611c1.934,5.799,5.926,10.8,11.351,13.9l4.498,2.571c-4.001,5.367-17.024,21.366-34.79,28.327
			c-17.668-6.933-30.765-22.961-34.787-28.33l4.493-2.567C68.66,170.722,72.653,165.72,74.586,159.921z M58.789,121.759V84.202
			c5.317-0.264,12.787-0.818,20.909-1.977c16.975-2.425,29.989-6.522,38.836-12.211l9.733,9.732v42.013
			c0,6.16-3.28,11.955-8.563,15.124l-21.502,12.902c-2.883,1.729-6.466,1.729-9.349,0l-21.502-12.902
			C62.071,133.713,58.789,127.919,58.789,121.759z M162.41,150.405c-8.748,3.919-19.435,7.096-30.997,9.255
			c-2.604-1.663-4.216-4.581-4.216-7.743v-0.832l0.756-0.453c10.083-6.05,16.347-17.113,16.347-28.872V76.426
			c0-2.126-0.844-4.164-2.348-5.668l-17.102-17.102c-3.131-3.131-8.207-3.131-11.337,0c-5.652,5.652-18.4,10.152-35.895,12.67
			c-14.252,2.051-26.723,2.084-26.845,2.084c-4.427,0-8.017,3.589-8.017,8.017v45.333c0,11.759,6.264,22.823,16.347,28.872
			l0.756,0.453v0.833c0,3.163-1.613,6.082-4.217,7.744c-11.557-2.157-22.25-5.339-30.995-9.257c-0.025-0.01-0.044-0.021-0.061-0.03
			c0.341-42.518,5.149-73.901,14.695-95.935c11.197-25.843,28.941-38.405,54.247-38.405c25.306,0,43.051,12.563,54.247,38.405
			c9.546,22.034,14.353,53.418,14.695,95.935C162.454,150.384,162.434,150.394,162.41,150.405z"/>
	</g>
</g>
<g>
	<g>
		<path d="M490.152,430.377l-40.666-15.25c-2.65-0.994-4.644-3.171-5.474-5.79l4.053-3.04c7.858-5.894,12.74-14.895,13.393-24.696
			l1.914-28.724c0-0.002,0-0.004,0.001-0.006c0-0.001,0-0.002,0-0.003l3.42-51.303c0.775-11.616-3.342-23.153-11.295-31.653
			c-7.954-8.501-19.191-13.377-30.833-13.377h-46.594c-11.641,0-22.879,4.876-30.831,13.376
			c-7.953,8.501-12.07,20.039-11.296,31.653l5.336,80.037c0.066,0.993,0.187,1.974,0.339,2.948
			c-25.383,16.953-54.878,25.907-85.619,25.907c-36.99,0-72.775-13.278-100.76-37.389c-24.585-21.18-41.827-49.493-49.375-80.692
			l17.058,12.795c3.542,2.657,8.568,1.938,11.223-1.603c2.656-3.541,1.938-8.567-1.603-11.223l-34.205-25.653
			c-1.995-1.495-4.572-1.98-6.975-1.306c-2.402,0.673-4.352,2.426-5.278,4.743l-17.102,42.756
			c-1.645,4.111,0.355,8.776,4.466,10.421c0.977,0.39,1.984,0.575,2.975,0.575c3.182,0,6.192-1.907,7.446-5.042l7.449-18.621
			c8.814,32.834,27.4,62.552,53.456,85.001c30.894,26.615,70.394,41.274,111.225,41.274c32.902,0,64.521-9.283,91.959-26.91
			c1.892,2.517,4.14,4.788,6.715,6.719l4.053,3.04c-0.828,2.619-2.824,4.796-5.474,5.79l-40.666,15.25
			c-13.068,4.9-21.848,17.57-21.848,31.526v24.978c0,13.851,11.268,25.119,25.119,25.119h171.023
			C500.732,512,512,500.732,512,486.881v-24.978C512,447.947,503.22,435.277,490.152,430.377z M351.943,300.498
			c-0.487-7.31,2-14.283,7.006-19.633c5.006-5.35,11.796-8.297,19.124-8.297h46.594c7.326,0,14.118,2.947,19.124,8.297
			c5.006,5.351,7.494,12.323,7.007,19.633l-0.079,1.182c-27.248,15.519-81.868,21.52-97.167,22.935L351.943,300.498z
			 M357.279,380.534l-2.661-39.906c14.292-1.275,63.015-6.484,94.868-20.461l-2.11,31.643c-0.887,13.249-12.851,24.44-26.129,24.44
			H401.37c-4.427,0-8.017,3.589-8.017,8.017c0,4.427,3.589,8.017,8.017,8.017h19.877c8.494,0,16.544-2.698,23.299-7.268
			c-1.13,3.335-3.223,6.298-6.099,8.455l-17.943,13.457c-3.032,2.275-6.792,3.527-10.582,3.527h-17.102
			c-3.79,0-7.55-1.253-10.582-3.527l-17.942-13.457C360.178,390.383,357.621,385.669,357.279,380.534z M393.353,495.967h-77.495
			c-5.01,0-9.086-4.076-9.086-9.086v-24.978c0-7.31,4.599-13.947,11.445-16.513l28.764-10.786l46.372,30.915V495.967z
			 M364.594,427.075c2.953-2.11,5.41-4.822,7.206-7.933l0.816,0.612c5.79,4.343,12.965,6.734,20.202,6.734h17.102
			c7.237,0,14.412-2.391,20.202-6.734l0.815-0.611c1.797,3.112,4.254,5.823,7.206,7.933l-36.774,24.516L364.594,427.075z
			 M495.968,486.881h-0.001c0,5.01-4.076,9.086-9.086,9.086h-77.495v-30.448l46.373-30.916l28.764,10.786
			c6.845,2.566,11.445,9.203,11.445,16.513V486.881z"/>
	</g>
</g>
<g>
</g>
<g>
</g>
<g>
</g>
<g>
</g>
<g>
</g>
<g>
</g>
<g>
</g>
<g>
</g>
<g>
</g>
<g>
</g>
<g>
</g>
<g>
</g>
<g>
</g>
<g>
</g>
<g>
</g>
</svg>
