<?xml version="1.0" encoding="iso-8859-1"?>
<!-- Generator: Adobe Illustrator 19.0.0, SVG Export Plug-In . SVG Version: 6.00 Build 0)  -->
<svg version="1.1" id="Layer_1" xmlns="http://www.w3.org/2000/svg" xmlns:xlink="http://www.w3.org/1999/xlink" x="0px" y="0px"
	 viewBox="0 0 512 512" style="enable-background:new 0 0 512 512;" xml:space="preserve">
<g>
	<g>
		<path d="M493.526,0H18.474C8.288,0,0,8.288,0,18.474v475.052C0,503.712,8.288,512,18.474,512h475.052
			c10.186,0,18.474-8.288,18.474-18.474V18.474C512,8.288,503.712,0,493.526,0z M496.165,493.526c0,1.43-1.209,2.639-2.639,2.639
			H18.474c-1.43,0-2.639-1.209-2.639-2.639V18.474c0-1.43,1.209-2.639,2.639-2.639h475.052c1.43,0,2.639,1.209,2.639,2.639V493.526z
			"/>
	</g>
</g>
<g>
	<g>
		<polygon points="393.235,89.732 393.235,105.567 427.546,105.567 427.546,237.526 182.103,237.526 182.103,253.361 
			295.588,253.361 295.588,321.979 398.516,321.979 398.516,306.144 311.423,306.144 311.423,253.361 427.546,253.361 
			427.546,427.546 358.928,427.546 358.928,353.649 287.67,353.649 287.67,369.485 343.093,369.485 343.093,427.546 
			282.392,427.546 282.392,443.381 443.381,443.381 443.381,89.732 		"/>
	</g>
</g>
<g>
	<g>
		<polygon points="340.449,105.567 340.449,89.732 68.619,89.732 68.619,443.381 229.612,443.381 229.612,427.546 84.454,427.546 
			84.454,348.371 200.577,348.371 200.577,403.794 216.412,403.794 216.412,332.536 84.454,332.536 84.454,248.082 139.876,248.082 
			139.876,232.247 84.454,232.247 84.454,105.567 121.402,105.567 121.402,147.794 271.835,147.794 271.835,131.959 
			137.237,131.959 137.237,105.567 		"/>
	</g>
</g>
<g>
	<g>
		<polygon points="366.845,29.691 319.868,64.924 329.369,77.592 358.928,55.423 358.928,174.186 153.072,174.186 153.072,306.144 
			248.082,306.144 248.082,477.691 263.918,477.691 263.918,290.309 168.907,290.309 168.907,190.021 374.763,190.021 
			374.763,55.423 404.322,77.592 413.823,64.924 		"/>
	</g>
</g>
<g>
</g>
<g>
</g>
<g>
</g>
<g>
</g>
<g>
</g>
<g>
</g>
<g>
</g>
<g>
</g>
<g>
</g>
<g>
</g>
<g>
</g>
<g>
</g>
<g>
</g>
<g>
</g>
<g>
</g>
</svg>
