<?xml version="1.0" encoding="iso-8859-1"?>
<!-- Generator: Adobe Illustrator 19.0.0, SVG Export Plug-In . SVG Version: 6.00 Build 0)  -->
<svg version="1.1" id="Layer_1" xmlns="http://www.w3.org/2000/svg" xmlns:xlink="http://www.w3.org/1999/xlink" x="0px" y="0px"
	 viewBox="0 0 496 496" style="enable-background:new 0 0 496 496;" xml:space="preserve">
<g>
	<g>
		<g>
			<path d="M0,320h240V0H0V320z M160,304h-16v-16h16V304z M192,304h-16v-16h16V304z M224,304h-16v-16h16V304z M16,16h208v256H16V16z
				 M16,288h112v16H16V288z"/>
			<path d="M32,96h16v16H32v64h16v16H32v64h176v-64h-16v-16h16v-64h-16V96h16V32H32V96z M192,240H48v-32h144V240z M64,192v-16h112
				v16H64z M192,160H48v-32h144V160z M64,112V96h112v16H64z M48,48h144v32H48V48z"/>
			<path d="M256,176v320h240V176H256z M384,480H272v-16h112V480z M416,480h-16v-16h16V480z M448,480h-16v-16h16V480z M480,480h-16
				v-16h16V480z M480,448H272V192h208V448z"/>
			<path d="M464,368h-16v-16h16v-64h-16v-16h16v-64H288v64h16v16h-16v64h16v16h-16v64h176V368z M304,224h144v32H304V224z M432,272
				v16H320v-16H432z M304,304h144v32H304V304z M432,352v16H320v-16H432z M448,416H304v-32h144V416z"/>
			<rect x="256" y="48" width="16" height="16"/>
			<rect x="288" y="48" width="16" height="16"/>
			<rect x="320" y="48" width="16" height="16"/>
			<rect x="352" y="48" width="16" height="16"/>
			<rect x="352" y="80" width="16" height="16"/>
			<rect x="352" y="112" width="16" height="16"/>
			<rect x="352" y="144" width="16" height="16"/>
			<rect x="224" y="432" width="16" height="16"/>
			<rect x="192" y="432" width="16" height="16"/>
			<rect x="160" y="432" width="16" height="16"/>
			<rect x="128" y="432" width="16" height="16"/>
			<rect x="128" y="400" width="16" height="16"/>
			<rect x="128" y="368" width="16" height="16"/>
			<rect x="128" y="336" width="16" height="16"/>
		</g>
	</g>
</g>
<g>
</g>
<g>
</g>
<g>
</g>
<g>
</g>
<g>
</g>
<g>
</g>
<g>
</g>
<g>
</g>
<g>
</g>
<g>
</g>
<g>
</g>
<g>
</g>
<g>
</g>
<g>
</g>
<g>
</g>
</svg>
